<svg xmlns="http://www.w3.org/2000/svg" version="1.1" xmlns:xlink="http://www.w3.org/1999/xlink" xmlns:svgjs="http://svgjs.com/svgjs" width="512" height="512" x="0" y="0" viewBox="0 0 64 64" style="enable-background:new 0 0 512 512" xml:space="preserve" class=""><g><path xmlns="http://www.w3.org/2000/svg" d="m32 38h10v2h-10z" fill="#004879" data-original="#000000" style=""></path><path xmlns="http://www.w3.org/2000/svg" d="m10 16h26v2h-26z" fill="#004879" data-original="#000000" style=""></path><path xmlns="http://www.w3.org/2000/svg" d="m42 5-6.4 4.8a1 1 0 0 1 -1.308-.093l-5.292-5.293-5.293 5.294a1 1 0 0 1 -1.414 0l-5.293-5.294-5.293 5.293a1 1 0 0 1 -1.307.093l-6.4-4.8v49h26v-21a3 3 0 0 1 3-3h9zm-34 19h8v2h-8zm0 6h8v2h-8zm8 20h-8v-2h8zm10 0h-8v-2h8zm0-6h-18v-2h18zm0-6h-18v-2h18zm0-6h-8v-2h8zm12-6h-20v-2h20zm0-7a1 1 0 0 1 -1 1h-28a1 1 0 0 1 -1-1v-4a1 1 0 0 1 1-1h28a1 1 0 0 1 1 1z" fill="#004879" data-original="#000000" style=""></path><path xmlns="http://www.w3.org/2000/svg" d="m42 32h-9a1 1 0 0 0 -1 1v3h10z" fill="#004879" data-original="#000000" style=""></path><path xmlns="http://www.w3.org/2000/svg" d="m50 38h10v2h-10z" fill="#004879" data-original="#000000" style=""></path><path xmlns="http://www.w3.org/2000/svg" d="m60 33a1 1 0 0 0 -1-1h-9v4h10z" fill="#004879" data-original="#000000" style=""></path><path xmlns="http://www.w3.org/2000/svg" d="m46.555 42.168 1.445.963v-11.131h-4v11.131l1.445-.963a1 1 0 0 1 1.11 0z" fill="#004879" data-original="#000000" style=""></path><path xmlns="http://www.w3.org/2000/svg" d="m33 60h26a1 1 0 0 0 1-1v-17h-10v3a1 1 0 0 1 -1.555.832l-2.445-1.632-2.445 1.63a1 1 0 0 1 -1.555-.83v-3h-10v17a1 1 0 0 0 1 1zm23-11h2v2h-2zm-3 7h3v-3h2v4a1 1 0 0 1 -1 1h-4z" fill="#004879" data-original="#000000" style=""></path></g></svg>