<svg xmlns="http://www.w3.org/2000/svg" version="1.1" xmlns:xlink="http://www.w3.org/1999/xlink" xmlns:svgjs="http://svgjs.com/svgjs" width="512" height="512" x="0" y="0" viewBox="0 0 512 512" style="enable-background:new 0 0 512 512" xml:space="preserve"><g><g xmlns="http://www.w3.org/2000/svg"><path d="m30 0c-16.569 0-30 13.431-30 30v30h60v-30c0-16.569-13.431-30-30-30z" fill="#004879" data-original="#000000" style=""></path><path d="m211 467c0 16.948-5.865 32.426-15.383 45h211.383c24.853 0 45-20.147 45-45v-15h-241z" fill="#004879" data-original="#000000" style=""></path><circle cx="241" cy="105" r="15" fill="#004879" data-original="#000000" style=""></circle><path d="m392 75c0-41.422-34.578-75-76-75h-234.344c5.167 8.86 8.344 19.023 8.344 30v437c0 24.853 21.147 45 46 45s45-20.147 45-45v-45h211zm-196 30c0-24.814 20.186-45 45-45s45 20.186 45 45c0 6.927-1.703 13.412-4.51 19.279l30.115 30.115-21.211 21.211-30.115-30.115c-5.867 2.807-12.352 4.51-19.279 4.51s-13.412-1.703-19.279-4.51l-30.115 30.115-21.211-21.211 30.115-30.115c-2.807-5.867-4.51-12.352-4.51-19.279zm150 256h-210v-30h210zm0-60h-210v-30h210zm0-60h-210v-30h210z" fill="#004879" data-original="#000000" style=""></path><path d="m422 0h90v271h-90z" fill="#004879" data-original="#000000" style=""></path><path d="m467 424.432 40.807-123.432h-80.896z" fill="#004879" data-original="#000000" style=""></path></g></g></svg>