<?xml version="1.0"?>
<svg xmlns="http://www.w3.org/2000/svg" xmlns:xlink="http://www.w3.org/1999/xlink" xmlns:svgjs="http://svgjs.com/svgjs" version="1.1" width="512" height="512" x="0" y="0" viewBox="0 0 440.00131 440" style="enable-background:new 0 0 512 512" xml:space="preserve" class=""><g><path xmlns="http://www.w3.org/2000/svg" d="m252.84375 216.164062-7.554688-15.308593-7.558593 15.308593c-1.019531 2.066407-2.988281 3.5-5.269531 3.832032l-16.894532 2.453125 12.226563 11.914062c1.648437 1.609375 2.402343 3.929688 2.011719 6.203125l-2.886719 16.824219 15.113281-7.941406c2.039062-1.074219 4.472656-1.074219 6.511719 0l15.113281 7.941406-2.886719-16.824219c-.390625-2.273437.363281-4.59375 2.011719-6.203125l12.226562-11.914062-16.894531-2.453125c-2.28125-.332032-4.25-1.765625-5.269531-3.832032zm0 0" fill="#004879" data-original="#000000" style=""/><path xmlns="http://www.w3.org/2000/svg" d="m204.101562 60-37.152343-48.019531c-6.273438-7.636719-15.65625-12.0351565-25.539063-11.980469h-108.675781c-8.707031-.0234375-17.0625 3.429688-23.210937 9.597656-6.144532 6.164063-9.5742192 14.53125-9.523438 23.238282v300.332031c-.0507812 8.707031 3.378906 17.070312 9.523438 23.238281 6.148437 6.164062 14.503906 9.621094 23.210937 9.59375h7.265625v-258.964844c-.074219-12.429687 4.804688-24.375 13.558594-33.203125 8.753906-8.824219 20.660156-13.800781 33.089844-13.832031zm0 0" fill="#004879" data-original="#000000" style=""/><path xmlns="http://www.w3.org/2000/svg" d="m407.269531 74h-320.621093c-8.71875.027344-17.066407 3.527344-23.195313 9.726562-6.128906 6.203126-9.53125 14.589844-9.453125 23.308594v258.964844h353.269531c8.707031.027344 17.058594-3.429688 23.207031-9.59375 6.144532-6.167969 9.574219-14.53125 9.523438-23.238281v-226.132813c.058594-8.726562-3.359375-17.117187-9.503906-23.316406-6.140625-6.199219-14.5-9.695312-23.226563-9.71875zm-57.410156 83.84375c-.164063 1.910156-1.105469 3.664062-2.601563 4.863281l-7.847656 6.28125c-9.445312 7.488281-10.757812 13.621094-10.800781 18.636719-.039063 4.546875 1.140625 10.035156 3.820313 17.785156 1.019531 2.941406 2.238281 6.21875 3.957031 10.625 9.316406 23.835938 23.402343 59.859375-11.550781 97.066406-13.097657 13.808594-26.875 16.089844-37.417969 16.539063-.421875.019531-.933594.035156-1.359375.046875-.828125.027344-1.820313.042969-2.640625.050781-1.199219.015625-2.707031.015625-3.871094.015625-8.257813.09375-21.265625 3.613282-30.492187 13.234375-1.320313 1.378907-3.148438 2.15625-5.054688 2.15625h-.183594c-1.96875-.050781-3.828125-.929687-5.113281-2.421875-8.132813-9.421875-20.726563-12.871094-29.039063-12.964844-12.542968-.023437-28.171874 0-43.945312-16.625-34.707031-36.945312-21.953125-69.519531-11.707031-95.691406l.546875-1.398437c9.585937-24.578125 11.777344-35-3.371094-47.015625l-7.863281-6.265625c-1.496094-1.195313-2.441407-2.953125-2.609375-4.859375-.167969-1.910156.457031-3.804688 1.722656-5.242188l35.445312-40.214844c2.382813-2.699218 6.425782-3.152343 9.347657-1.046874 27.136719 19.582031 46.832031 9.9375 54.035156 4.886718 2.414063-1.691406 5.628906-1.691406 8.039063 0 7.207031 5.054688 26.902343 14.699219 54.035156-4.886718 2.921875-2.105469 6.964844-1.65625 9.347656 1.046874l35.445312 40.164063c1.269532 1.433594 1.890626 3.328125 1.726563 5.234375zm0 0" fill="#004879" data-original="#000000" style=""/><path xmlns="http://www.w3.org/2000/svg" d="m245.285156 130.308594c-17.984375 10.351562-40.117187 8.894531-60.949218-4.007813l-26.535157 30.101563 2.09375 1.667968c24.671875 19.5625 16.046875 41.679688 7.699219 63.066407l-.550781 1.40625c-9.71875 24.832031-19.773438 50.507812 8.851562 80.980469 11.609375 12.234374 22.410157 12.234374 33.84375 12.234374 10.144531.113282 23.746094 3.613282 34.457031 12.75 10.078126-7.929687 22.445313-12.402343 35.265626-12.75 1.195312 0 2.644531 0 3.785156-.015624.738281-.011719 1.636718-.023438 2.386718-.046876.371094-.011718.8125-.023437 1.179688-.039062 8.824219-.375 18.300781-2.109375 27.839844-12.164062 28.871094-30.734376 17.679687-59.363282 8.6875-82.363282-1.789063-4.585937-3.066406-8.023437-4.144532-11.144531-3.226562-9.328125-4.644531-16.257813-4.589843-22.476563.097656-11.484374 5.203125-20.847656 16.078125-29.46875l2.089844-1.671874-26.53125-30.066407c-20.835938 12.902344-42.96875 14.363281-60.957032 4.007813zm49.652344 92.265625-19.746094 19.246093 4.660156 27.179688c.453126 2.628906-.628906 5.28125-2.785156 6.847656s-5.011718 1.773438-7.371094.53125l-24.40625-12.832031-24.410156 12.832031c-2.359375 1.242188-5.214844 1.035156-7.371094-.53125s-3.238281-4.21875-2.785156-6.847656l4.660156-27.179688-19.746093-19.246093c-1.910157-1.859375-2.59375-4.640625-1.769531-7.175781.820312-2.535157 3.011718-4.382813 5.648437-4.765626l27.289063-3.964843 12.199218-24.730469c1.179688-2.386719 3.613282-3.902344 6.277344-3.902344 2.667969 0 5.101562 1.515625 6.28125 3.902344l12.199219 24.730469 27.289062 3.964843c2.636719.382813 4.828125 2.230469 5.648438 4.765626.824219 2.53125.136719 5.316406-1.769531 7.175781zm0 0" fill="#004879" data-original="#000000" style=""/></g></svg>
