<svg xmlns="http://www.w3.org/2000/svg" version="1.1" xmlns:xlink="http://www.w3.org/1999/xlink" xmlns:svgjs="http://svgjs.com/svgjs" width="512" height="512" x="0" y="0" viewBox="0 0 512 512" style="enable-background:new 0 0 512 512" xml:space="preserve" class=""><g><g xmlns="http://www.w3.org/2000/svg"><path d="m497 102h-30v310c0 8.284-6.716 15-15 15h-144.769c-17.381 0-32.464 11.776-36.68 28.638l-.012-.001c-1.473 5.897-6.432 10.478-12.707 11.251-.619.076-1.235.113-1.846.113-6.796 0-12.854-4.619-14.539-11.363-4.215-16.862-19.298-28.638-36.677-28.638h-144.77c-8.284 0-15-6.716-15-15v-310h-30c-8.284 0-15 6.716-15 15v340c0 8.284 6.716 15 15 15h168.079c6.545 23.061 27.791 40 52.921 40h40c25.13 0 46.376-16.939 52.921-40h168.079c8.284 0 15-6.716 15-15v-340c0-8.284-6.716-15-15-15z" fill="#004879" data-original="#000000" style="" class=""></path><g><g><path d="m106 120c0-28.549 8.02-55.259 21.921-78h-37.921c-8.284 0-15 6.716-15 15v340h129.769c13.206 0 25.674 3.792 36.231 10.46v-138.208c-75.694-7.55-135-71.604-135-149.252zm97.5 232c0 8.284-6.716 15-15 15h-61c-8.284 0-15-6.716-15-15s6.716-15 15-15h61c8.284 0 15 6.716 15 15zm-30-60c0 8.284-6.716 15-15 15h-31c-8.284 0-15-6.716-15-15s6.716-15 15-15h31c8.284 0 15 6.716 15 15z" fill="#004879" data-original="#000000" style="" class=""></path><path d="m422 42h-37.921c13.901 22.741 21.921 49.451 21.921 78 0 77.648-59.306 141.702-135 149.252v138.208c10.558-6.669 23.025-10.46 36.231-10.46h129.769v-340c0-8.284-6.716-15-15-15zm-37.5 325h-61c-8.284 0-15-6.716-15-15s6.716-15 15-15h61c8.284 0 15 6.716 15 15s-6.716 15-15 15zm0-60h-31c-8.284 0-15-6.716-15-15s6.716-15 15-15h31c8.284 0 15 6.716 15 15s-6.716 15-15 15z" fill="#004879" data-original="#000000" style="" class=""></path></g><path d="m256 0c-66.274 0-120 53.726-120 120s53.726 120 120 120 120-53.726 120-120-53.726-120-120-120zm15 180c0 8.284-6.716 15-15 15s-15-6.716-15-15v-70c0-8.284 6.716-15 15-15s15 6.716 15 15zm-15-105c-8.284 0-15-6.716-15-15s6.716-15 15-15 15 6.716 15 15-6.716 15-15 15z" fill="#004879" data-original="#000000" style="" class=""></path></g></g></g></svg>