<svg xmlns="http://www.w3.org/2000/svg" version="1.1" xmlns:xlink="http://www.w3.org/1999/xlink" xmlns:svgjs="http://svgjs.com/svgjs" width="512" height="512" x="0" y="0" viewBox="0 0 512 512" style="enable-background:new 0 0 512 512" xml:space="preserve"><g><g xmlns="http://www.w3.org/2000/svg"><path d="M140.8667,344.3032l-27.6519-24.8867a23.9983,23.9983,0,0,0-30.8193-1.085l28.2607,42.3916a8,8,0,1,1-13.3124,8.875l-32-48-.0118-.017-.0034-.0054-.0078-.0117-.0049-.0074-.0058-.0092-.0059-.0088-.0044-.0064A7.9813,7.9813,0,0,1,64,317.12V229.165A39.3772,39.3772,0,0,0,32,190.5V330.5039L95.0674,449.4121A8.0025,8.0025,0,0,1,96,453.1606V496h64V453.1606q0-.3625.0327-.7241l4.3726-48.0971A72.3344,72.3344,0,0,0,140.8667,344.3032Z" fill="#004879" data-original="#000000" style=""></path><path d="M459.7173,201.1533A39.0574,39.0574,0,0,0,448,229.165V317.12a7.9813,7.9813,0,0,1-1.3,4.4126l-.0044.0064-.0059.0088-.0058.0092-.0049.0074-.0078.0117-.0034.0054-.0118.017-32,48a8,8,0,1,1-13.3124-8.875l28.2607-42.3916a23.999,23.999,0,0,0-30.8193,1.085l-27.6519,24.8867a72.3344,72.3344,0,0,0-23.5386,60.0362l4.3726,48.0971q.033.361.0327.7241V496h64V453.1606a8.0025,8.0025,0,0,1,.9326-3.7485L480,330.5039V190.5A39.03,39.03,0,0,0,459.7173,201.1533Z" fill="#004879" data-original="#000000" style=""></path><path d="M350.34,141.9077l-28.4233,2.7866a8.0219,8.0219,0,0,1-1.7285-.018,8.4661,8.4661,0,0,0-5.293,1.018l-22.8916,13.232a8,8,0,0,1-5.7388.8833l-68.66-15.2578-9.7866,6.5468,44.2363,26.0049a8,8,0,0,1,.9434,13.1436l-40,32a7.991,7.991,0,0,1-7.0372,1.4883l-29.2773-7.72-2.9868,1.3306,27.7651,28.7153,132.5122-74.457,17.9151-26.9185a2.8026,2.8026,0,0,0-.4043-1.6416A2.8717,2.8717,0,0,0,350.34,141.9077Z" fill="#004879" data-original="#000000" style=""></path><path d="M397.811,96.5127,256,32.6978,114.189,96.5127l20.1489,100.7461a184.37,184.37,0,0,0,85.76,121.6933h.0005L256,340.4932l35.9014-21.5411a184.37,184.37,0,0,0,85.7607-121.6933ZM252.7173,51.72a8,8,0,0,1,6.5654,0l48,21.6-6.5654,14.5908L256,67.7881l-44.7173,20.123L204.7173,73.32ZM283.67,305.2319l-23.5537,14.1324a8,8,0,0,1-8.2319,0l-23.5537-14.1319a167.8043,167.8043,0,0,1-18.8838-13.18l10.0381-12.4589a151.8913,151.8913,0,0,0,17.0776,11.9194L256,303.1748l19.4375-11.6626a151.8644,151.8644,0,0,0,17.0771-11.9189l10.0381,12.4589A167.86,167.86,0,0,1,283.67,305.2319Zm82.82-153.8466a7.9792,7.9792,0,0,1-.6938,1.2812L346.228,182.0693a7.9944,7.9944,0,0,1-2.7407,2.5425L203.9189,263.0337a8.0011,8.0011,0,0,1-9.67-1.4136l-40-41.3691a8.0006,8.0006,0,0,1,2.4961-12.8687l16-7.1279a8.0019,8.0019,0,0,1,5.295-.4277l28.1069,7.4111,27.7851-22.228-45.21-26.5772a8,8,0,0,1-.3941-13.5459l23.2242-15.5361a8.0048,8.0048,0,0,1,6.1836-1.16l68.9584,15.3242,20.1983-11.6752a24.3185,24.3185,0,0,1,14.2485-3.146l28.8955-2.8326a7.9009,7.9009,0,0,1,1.7281.0181,18.7,18.7,0,0,1,14.726,25.5064Z" fill="#004879" data-original="#000000" style=""></path></g></g></svg>