<?xml version="1.0"?>
<svg xmlns="http://www.w3.org/2000/svg" xmlns:xlink="http://www.w3.org/1999/xlink" xmlns:svgjs="http://svgjs.com/svgjs" version="1.1" width="512" height="512" x="0" y="0" viewBox="0 0 512 512" style="enable-background:new 0 0 512 512" xml:space="preserve" class=""><g>
<path xmlns="http://www.w3.org/2000/svg" d="M181,60h150c16.538,0,30-13.462,30-30S347.538,0,331,0H181c-16.538,0-30,13.462-30,30S164.462,60,181,60z" fill="#004879" data-original="#000000" style="" class=""/>
<path xmlns="http://www.w3.org/2000/svg" d="M241,256v46h30v-46c0-8.291,6.709-15,15-15h45v-30h-45c-8.291,0-15-6.709-15-15v-46h-30v46c0,8.291-6.709,15-15,15h-45v30  h45C234.291,241,241,247.709,241,256z" fill="#004879" data-original="#000000" style="" class=""/>
<path xmlns="http://www.w3.org/2000/svg" d="M406,30h-15c0,33.091-26.909,60-60,60H181c-33.091,0-60-26.909-60-60h-15c-24.814,0-45,20.186-45,45v392  c0,24.814,20.186,45,45,45h300c24.814,0,45-20.186,45-45V75C451,50.186,430.814,30,406,30z M151,196c0-8.291,6.709-15,15-15h45v-46  c0-8.291,6.709-15,15-15h60c8.291,0,15,6.709,15,15v46h45c8.291,0,15,6.709,15,15v60c0,8.291-6.709,15-15,15h-45v46  c0,8.291-6.709,15-15,15h-60c-8.291,0-15-6.709-15-15v-46h-45c-8.291,0-15-6.709-15-15V196z M376,452H136c-8.291,0-15-6.709-15-15  s6.709-15,15-15h240c8.291,0,15,6.709,15,15S384.291,452,376,452z M376,392H136c-8.291,0-15-6.709-15-15s6.709-15,15-15h240  c8.291,0,15,6.709,15,15S384.291,392,376,392z" fill="#004879" data-original="#000000" style="" class=""/>
<g xmlns="http://www.w3.org/2000/svg">
</g>
<g xmlns="http://www.w3.org/2000/svg">
</g>
<g xmlns="http://www.w3.org/2000/svg">
</g>
<g xmlns="http://www.w3.org/2000/svg">
</g>
<g xmlns="http://www.w3.org/2000/svg">
</g>
<g xmlns="http://www.w3.org/2000/svg">
</g>
<g xmlns="http://www.w3.org/2000/svg">
</g>
<g xmlns="http://www.w3.org/2000/svg">
</g>
<g xmlns="http://www.w3.org/2000/svg">
</g>
<g xmlns="http://www.w3.org/2000/svg">
</g>
<g xmlns="http://www.w3.org/2000/svg">
</g>
<g xmlns="http://www.w3.org/2000/svg">
</g>
<g xmlns="http://www.w3.org/2000/svg">
</g>
<g xmlns="http://www.w3.org/2000/svg">
</g>
<g xmlns="http://www.w3.org/2000/svg">
</g>
</g></svg>
