<svg xmlns="http://www.w3.org/2000/svg" version="1.1" xmlns:xlink="http://www.w3.org/1999/xlink" xmlns:svgjs="http://svgjs.com/svgjs" width="512" height="512" x="0" y="0" viewBox="0 0 511.334 511.334" style="enable-background:new 0 0 512 512" xml:space="preserve"><g><path xmlns="http://www.w3.org/2000/svg" d="m0 224.667v132.333c0 38.108 30.892 69 69 69h373.334c38.108 0 69-30.892 69-69v-132.333c0-6.627-5.373-12-12-12h-487.334c-6.627 0-12 5.373-12 12zm127.667 84h-32c-11.598 0-21-9.402-21-21s9.402-21 21-21h32c11.598 0 21 9.402 21 21s-9.402 21-21 21z" fill="#004879" data-original="#000000" style=""></path><path xmlns="http://www.w3.org/2000/svg" d="m511.334 158.667v-4.333c0-38.108-30.892-69-69-69h-373.334c-38.108 0-69 30.892-69 69v4.333c0 6.627 5.373 12 12 12h487.334c6.627 0 12-5.373 12-12z" fill="#004879" data-original="#000000" style=""></path></g></svg>