<svg xmlns="http://www.w3.org/2000/svg" version="1.1" xmlns:xlink="http://www.w3.org/1999/xlink" xmlns:svgjs="http://svgjs.com/svgjs" width="512" height="512" x="0" y="0" viewBox="0 0 464 464" style="enable-background:new 0 0 512 512" xml:space="preserve" class=""><g><path xmlns="http://www.w3.org/2000/svg" d="m336 220.6875c0-8.175781-3.183594-15.871094-8.96875-21.65625l-132.398438-132.398438c-5.03125-5.03125-8.402343-11.28125-9.839843-18.082031l-176.199219 182.472657c-5.546875 5.738281-8.59375 13.296874-8.59375 21.273437 0 8.574219 3.183594 16.261719 8.96875 22.046875l121.375 121.375c11.566406 11.570312 31.746094 11.570312 43.3125 0l153.375-153.375c5.785156-5.785156 8.96875-13.480469 8.96875-21.65625zm-157.65625-149.65625 11.3125 11.3125-11.3125 11.3125-11.3125-11.3125zm-22.632812 22.632812 11.3125 11.3125-11.3125 11.3125-11.3125-11.3125zm-22.621094 22.625 11.308594 11.3125-10.742188 10.742188-11.3125-11.3125zm10.910156 275.710938-131.3125-131.3125 35.3125-35.3125 131.3125 131.3125zm48-91.3125c-48.519531 0-88-39.480469-88-88s39.480469-88 88-88 88 39.480469 88 88-39.480469 88-88 88zm0 0" fill="#004879" data-original="#000000" style="" class=""></path><path xmlns="http://www.w3.org/2000/svg" d="m224 172.6875c-4.40625 0-8 3.59375-8 8 0 4.410156 3.59375 8 8 8 13.230469 0 24 10.769531 24 24 0 13.234375-10.769531 24-24 24h-16c-4.40625 0-8 3.59375-8 8 0 4.410156 3.59375 8 8 8h43.824219c7.679687-11.449219 12.175781-25.207031 12.175781-40s-4.496094-28.550781-12.175781-40zm0 0" fill="#004879" data-original="#000000" style="" class=""></path><path xmlns="http://www.w3.org/2000/svg" d="m160 212.6875c0-4.40625-3.59375-8-8-8h-31.527344c-.296875 2.632812-.472656 5.296875-.472656 8s.175781 5.367188.472656 8h31.527344c4.40625 0 8-3.589844 8-8zm0 0" fill="#004879" data-original="#000000" style="" class=""></path><path xmlns="http://www.w3.org/2000/svg" d="m184 244.6875c0-13.230469 10.769531-24 24-24h16c4.40625 0 8-3.589844 8-8 0-4.40625-3.59375-8-8-8-13.230469 0-24-10.765625-24-24 0-13.230469 10.769531-24 24-24h13.152344c-12.359375-9.992188-28.054688-16-45.152344-16-31.273438 0-57.878906 20.082031-67.800781 48h27.800781c13.230469 0 24 10.769531 24 24 0 13.234375-10.769531 24-24 24h-27.800781c9.914062 27.921875 36.519531 48 67.800781 48 17.097656 0 32.792969-6.007812 45.152344-16h-29.152344c-13.230469 0-24-10.765625-24-24zm0 0" fill="#004879" data-original="#000000" style="" class=""></path><path xmlns="http://www.w3.org/2000/svg" d="m435.3125 148.6875 28.6875 28.6875v-57.375zm0 0" fill="#004879" data-original="#000000" style="" class=""></path><path xmlns="http://www.w3.org/2000/svg" d="m244 93.375 28.6875-28.6875-38.054688-38.054688c-3.832031-3.832031-8.929687-5.945312-14.34375-5.945312-5.632812 0-10.738281 2.3125-14.417968 6.023438l-.34375.359374c-3.421875 3.632813-5.527344 8.53125-5.527344 13.90625 0 5.414063 2.113281 10.511719 5.945312 14.34375zm-22.34375-62.34375 33.757812 33.761719-11.308593 11.3125-33.761719-33.761719zm0 0" fill="#004879" data-original="#000000" style="" class=""></path><path xmlns="http://www.w3.org/2000/svg" d="m35.3125 260.683594 12.6875-12.6875 108.683594 108.683594-12.6875 12.6875zm0 0" fill="#004879" data-original="#000000" style="" class=""></path><path xmlns="http://www.w3.org/2000/svg" d="m460.6875 100.6875-100.6875-100.6875-104.6875 104.6875 83.03125 83.03125c8.808594 8.800781 13.65625 20.511719 13.65625 32.96875s-4.847656 24.167969-13.65625 32.96875l-111.03125 111.03125 36.574219 36.578125 196.90625-204.472656-48.105469-48.105469zm-170.34375-5.65625 72-72 11.3125 11.3125-72 72zm45.65625 13.65625c0-22.054688 17.945312-40 40-40s40 17.945312 40 40-17.945312 40-40 40-40-17.945312-40-40zm-74.34375 269.65625-11.3125-11.3125 56-56 11.3125 11.3125zm64-64-11.3125-11.3125 16-16 11.3125 11.3125zm100.6875-123.3125 11.3125 11.3125-88 88-11.3125-11.3125zm0 0" fill="#004879" data-original="#000000" style="" class=""></path><path xmlns="http://www.w3.org/2000/svg" d="m400 108.6875c0 13.253906-10.746094 24-24 24s-24-10.746094-24-24 10.746094-24 24-24 24 10.746094 24 24zm0 0" fill="#004879" data-original="#000000" style="" class=""></path></g></svg>