<svg xmlns="http://www.w3.org/2000/svg" version="1.1" xmlns:xlink="http://www.w3.org/1999/xlink" xmlns:svgjs="http://svgjs.com/svgjs" width="512" height="512" x="0" y="0" viewBox="0 0 512 512" style="enable-background:new 0 0 512 512" xml:space="preserve" class=""><g><path xmlns="http://www.w3.org/2000/svg" d="m362.817 296a6 6 0 0 1 -3.931 4.043l-34.966 11.205a6 6 0 0 1 -5.131-.7l-11.8-7.769-4.013 1.286 17.54 14.835a6 6 0 0 1 1.941 6.056l-5.648 22.263 3.938-1.262 4.932-13.65a6 6 0 0 1 3.812-3.675l35.249-11.3a6 6 0 0 1 7.813 6.176l-2.376 30.77 5-2.761a1.16 1.16 0 0 0 .587-.837l5.867-37.038a6 6 0 0 1 4.095-4.776l35.833-11.484a7.474 7.474 0 1 0 -4.559-14.236l-36.192 11.6a6 6 0 0 1 -6.114-1.512l-26.123-26.626a1.169 1.169 0 0 0 -.994-.337l-5.5.779 19.583 23.43a6 6 0 0 1 1.157 5.52z" fill="#004879" data-original="#000000" style=""></path><path xmlns="http://www.w3.org/2000/svg" d="m334.043 178.333a2.473 2.473 0 0 0 -1.448 1.227l-3.88 7.539a6 6 0 0 1 -10.67-5.491l3.88-7.539a14.544 14.544 0 0 1 1.333-2.1l-208.292-103.569a10.894 10.894 0 0 0 -6.4 5.422l-85.348 165.862a10.956 10.956 0 0 0 4.73 14.757l199.938 102.882a14.52 14.52 0 0 1 .931-2.309l3.88-7.539a6 6 0 1 1 10.67 5.49l-3.88 7.539a2.483 2.483 0 0 0 1.071 3.339l146.748 75.511-1.754-10.8a6 6 0 0 1 3.261-6.339l16.5-8.163-2.948-18.168a6 6 0 0 1 3.262-6.339l16.5-8.163-2.948-18.169a6 6 0 0 1 3.262-6.339l16.5-8.165-2.949-18.167a6 6 0 0 1 3.261-6.339l16.5-8.163-2.953-18.171a6 6 0 0 1 3.262-6.339l16.5-8.163-2.954-18.167a6 6 0 0 1 3.261-6.339l9.815-4.861-146.75-75.513a2.472 2.472 0 0 0 -1.891-.154zm-34.619 39.467 7.759-15.079a6 6 0 1 1 10.67 5.49l-7.759 15.079a6 6 0 1 1 -10.67-5.49zm-52.175-38.9 7.6-14.766a6 6 0 0 1 10.67 5.49l-7.6 14.766a6 6 0 1 1 -10.669-5.49zm-45.237-23.278 7.6-14.765a6 6 0 1 1 10.67 5.49l-7.6 14.765a6 6 0 0 1 -10.67-5.49zm-22.018-36.753a6 6 0 0 1 2.589 8.08l-34.754 67.541a6 6 0 1 1 -10.67-5.49l34.755-67.541a6 6 0 0 1 8.08-2.595zm-69.054 28.424 23.277-45.236a6 6 0 1 1 10.67 5.49l-23.277 45.236a6 6 0 1 1 -10.67-5.49zm-45.1 106.758a6 6 0 0 1 -5.33-8.746l38.8-75.394a6 6 0 0 1 10.67 5.49l-38.804 75.399a6 6 0 0 1 -5.34 3.251zm46.917 8.6-3.879 7.54a6 6 0 0 1 -10.678-5.491l3.879-7.54a6 6 0 0 1 10.671 5.49zm6.3-19.362a6 6 0 0 1 -5.33-8.746l12.66-24.6a6 6 0 0 1 10.67 5.491l-12.66 24.6a6 6 0 0 1 -5.346 3.256zm58.555-14.016-31.042 60.317a6 6 0 0 1 -10.67-5.49l31.036-60.316a6 6 0 1 1 10.67 5.49zm.968-28.108 12.66-24.6a6 6 0 0 1 10.67 5.491l-12.66 24.6a6 6 0 0 1 -10.67-5.49zm26.034 86.82-12.8 24.88a6 6 0 0 1 -10.67-5.49l12.8-24.88a6 6 0 1 1 10.67 5.49zm11.639-22.618a6 6 0 0 1 -10.67-5.49l30.893-60.037a6 6 0 1 1 10.67 5.49zm45.741 51.407-7.759 15.079a6 6 0 1 1 -10.669-5.49l7.758-15.079a6 6 0 1 1 10.67 5.49zm18.622-36.188-7.759 15.079a6 6 0 1 1 -10.67-5.49l7.753-15.075a6 6 0 0 1 10.67 5.49zm.192-26.6 7.76-15.078a6 6 0 1 1 10.669 5.49l-7.759 15.079a6 6 0 0 1 -10.67-5.491zm76.335 4.217 23.531 23.985 32.669-10.47a19.475 19.475 0 0 1 11.888 37.091l-32.317 10.357-5.289 33.39a13.082 13.082 0 0 1 -6.639 9.465l-14.742 8.137a6 6 0 0 1 -8.882-5.715l2.545-32.96-23.938 7.672-4.932 13.651a6 6 0 0 1 -3.812 3.674l-17.056 5.466a6 6 0 0 1 -7.647-7.189l7.387-29.121-22.939-19.4a6 6 0 0 1 2.043-10.295l17.056-5.466a6 6 0 0 1 5.131.7l11.8 7.768 23.743-7.61-20.783-24.866a6 6 0 0 1 3.763-9.788l16.18-2.291a13.209 13.209 0 0 1 11.234 3.812z" fill="#004879" data-original="#000000" style=""></path></g></svg>