<svg xmlns="http://www.w3.org/2000/svg" width="25.155" height="27.999" viewBox="0 0 25.155 27.999">
  <g id="office-building" transform="translate(-26)">
    <path id="Path_26" data-name="Path 26" d="M50.609,6.562H40.218V.547A.547.547,0,0,0,39.671,0H26.547A.547.547,0,0,0,26,.547V27.452a.547.547,0,0,0,.547.547H50.609a.547.547,0,0,0,.547-.547V7.109A.547.547,0,0,0,50.609,6.562ZM40.218,7.656h9.843V21.437H40.218Zm-8.75,19.249V22.53H34.75v4.375ZM35.3,21.437H30.922a.547.547,0,0,0-.547.547v4.922H27.094V1.094H39.125V26.905H35.843V21.984A.547.547,0,0,0,35.3,21.437Zm4.922,5.469V22.53h9.843v4.375Z" fill="#fff"/>
    <path id="Path_27" data-name="Path 27" d="M136.546,42.188h1.094a.547.547,0,0,0,.547-.547V40.548a.547.547,0,0,0-.547-.547h-1.094a.547.547,0,0,0-.547.547v1.094A.547.547,0,0,0,136.546,42.188Z" transform="translate(-103.984 -37.814)" fill="#fff"/>
    <path id="Path_28" data-name="Path 28" d="M136.546,112.188h1.094a.547.547,0,0,0,.547-.547v-1.094a.547.547,0,0,0-.547-.547h-1.094a.547.547,0,0,0-.547.547v1.094A.547.547,0,0,0,136.546,112.188Z" transform="translate(-103.984 -103.986)" fill="#fff"/>
    <path id="Path_29" data-name="Path 29" d="M136.546,182.188h1.094a.547.547,0,0,0,.547-.547v-1.094a.547.547,0,0,0-.547-.547h-1.094a.547.547,0,0,0-.547.547v1.094A.547.547,0,0,0,136.546,182.188Z" transform="translate(-103.984 -170.158)" fill="#fff"/>
    <path id="Path_30" data-name="Path 30" d="M136.546,252.187h1.094a.547.547,0,0,0,.547-.547v-1.094a.547.547,0,0,0-.547-.547h-1.094a.547.547,0,0,0-.547.547v1.094A.547.547,0,0,0,136.546,252.187Z" transform="translate(-103.984 -236.329)" fill="#fff"/>
    <path id="Path_31" data-name="Path 31" d="M136.546,322.187h1.094a.547.547,0,0,0,.547-.547v-1.094a.547.547,0,0,0-.547-.547h-1.094a.547.547,0,0,0-.547.547v1.094A.547.547,0,0,0,136.546,322.187Z" transform="translate(-103.984 -302.501)" fill="#fff"/>
    <path id="Path_32" data-name="Path 32" d="M66.548,42.188h1.094a.547.547,0,0,0,.547-.547V40.548A.547.547,0,0,0,67.641,40H66.548a.547.547,0,0,0-.547.547v1.094A.547.547,0,0,0,66.548,42.188Z" transform="translate(-37.814 -37.814)" fill="#fff"/>
    <path id="Path_33" data-name="Path 33" d="M66.548,112.188h1.094a.547.547,0,0,0,.547-.547v-1.094a.547.547,0,0,0-.547-.547H66.548a.547.547,0,0,0-.547.547v1.094A.547.547,0,0,0,66.548,112.188Z" transform="translate(-37.814 -103.986)" fill="#fff"/>
    <path id="Path_34" data-name="Path 34" d="M66.548,182.188h1.094a.547.547,0,0,0,.547-.547v-1.094a.547.547,0,0,0-.547-.547H66.548a.547.547,0,0,0-.547.547v1.094A.547.547,0,0,0,66.548,182.188Z" transform="translate(-37.814 -170.158)" fill="#fff"/>
    <path id="Path_35" data-name="Path 35" d="M66.548,252.187h1.094a.547.547,0,0,0,.547-.547v-1.094a.547.547,0,0,0-.547-.547H66.548a.547.547,0,0,0-.547.547v1.094A.547.547,0,0,0,66.548,252.187Z" transform="translate(-37.814 -236.329)" fill="#fff"/>
    <path id="Path_36" data-name="Path 36" d="M66.548,322.187h1.094a.547.547,0,0,0,.547-.547v-1.094a.547.547,0,0,0-.547-.547H66.548a.547.547,0,0,0-.547.547v1.094A.547.547,0,0,0,66.548,322.187Z" transform="translate(-37.814 -302.501)" fill="#fff"/>
    <path id="Path_37" data-name="Path 37" d="M207.641,40h-1.094a.547.547,0,0,0-.547.547v1.094a.547.547,0,0,0,.547.547h1.094a.547.547,0,0,0,.547-.547V40.548A.547.547,0,0,0,207.641,40Z" transform="translate(-170.158 -37.814)" fill="#fff"/>
    <path id="Path_38" data-name="Path 38" d="M207.641,110h-1.094a.547.547,0,0,0-.547.547v1.094a.547.547,0,0,0,.547.547h1.094a.547.547,0,0,0,.547-.547v-1.094A.547.547,0,0,0,207.641,110Z" transform="translate(-170.158 -103.985)" fill="#fff"/>
    <path id="Path_39" data-name="Path 39" d="M207.641,180h-1.094a.547.547,0,0,0-.547.547v1.094a.547.547,0,0,0,.547.547h1.094a.547.547,0,0,0,.547-.547v-1.094A.547.547,0,0,0,207.641,180Z" transform="translate(-170.158 -170.157)" fill="#fff"/>
    <path id="Path_40" data-name="Path 40" d="M207.641,250h-1.094a.547.547,0,0,0-.547.547v1.094a.547.547,0,0,0,.547.547h1.094a.547.547,0,0,0,.547-.547v-1.094A.547.547,0,0,0,207.641,250Z" transform="translate(-170.158 -236.329)" fill="#fff"/>
    <path id="Path_41" data-name="Path 41" d="M207.641,320h-1.094a.547.547,0,0,0-.547.547v1.094a.547.547,0,0,0,.547.547h1.094a.547.547,0,0,0,.547-.547v-1.094A.547.547,0,0,0,207.641,320Z" transform="translate(-170.158 -302.501)" fill="#fff"/>
    <path id="Path_42" data-name="Path 42" d="M392.64,180h-1.094a.547.547,0,0,0-.547.547v1.094a.547.547,0,0,0,.547.547h1.094a.547.547,0,0,0,.547-.547v-1.094A.547.547,0,0,0,392.64,180Z" transform="translate(-345.04 -170.157)" fill="#fff"/>
    <path id="Path_43" data-name="Path 43" d="M392.64,250h-1.094a.547.547,0,0,0-.547.547v1.094a.547.547,0,0,0,.547.547h1.094a.547.547,0,0,0,.547-.547v-1.094A.547.547,0,0,0,392.64,250Z" transform="translate(-345.04 -236.329)" fill="#fff"/>
    <path id="Path_44" data-name="Path 44" d="M392.64,320h-1.094a.547.547,0,0,0-.547.547v1.094a.547.547,0,0,0,.547.547h1.094a.547.547,0,0,0,.547-.547v-1.094A.547.547,0,0,0,392.64,320Z" transform="translate(-345.04 -302.501)" fill="#fff"/>
    <path id="Path_45" data-name="Path 45" d="M322.642,180h-1.094a.547.547,0,0,0-.547.547v1.094a.547.547,0,0,0,.547.547h1.094a.547.547,0,0,0,.547-.547v-1.094A.547.547,0,0,0,322.642,180Z" transform="translate(-278.87 -170.157)" fill="#fff"/>
    <path id="Path_46" data-name="Path 46" d="M322.642,250h-1.094a.547.547,0,0,0-.547.547v1.094a.547.547,0,0,0,.547.547h1.094a.547.547,0,0,0,.547-.547v-1.094A.547.547,0,0,0,322.642,250Z" transform="translate(-278.87 -236.329)" fill="#fff"/>
    <path id="Path_47" data-name="Path 47" d="M322.642,320h-1.094a.547.547,0,0,0-.547.547v1.094a.547.547,0,0,0,.547.547h1.094a.547.547,0,0,0,.547-.547v-1.094A.547.547,0,0,0,322.642,320Z" transform="translate(-278.87 -302.501)" fill="#fff"/>
  </g>
</svg>
