<svg xmlns="http://www.w3.org/2000/svg" width="26" height="26" viewBox="0 0 26 26">
  <g id="planet-earth" transform="translate(0 -0.001)">
    <g id="Group_3" data-name="Group 3" transform="translate(18.72 23.312)">
      <g id="Group_2" data-name="Group 2">
        <path id="Path_1" data-name="Path 1" d="M369.6,459.289a.508.508,0,0,0-.694-.184l-.02.011a.508.508,0,1,0,.51.878l.02-.011A.508.508,0,0,0,369.6,459.289Z" transform="translate(-368.63 -459.036)" fill="#fff"/>
      </g>
    </g>
    <g id="Group_5" data-name="Group 5" transform="translate(0 0.001)">
      <g id="Group_4" data-name="Group 4" transform="translate(0 0)">
        <path id="Path_2" data-name="Path 2" d="M24.258,6.505A13,13,0,0,0,.449,9.64a13,13,0,0,0,17.2,15.5.508.508,0,0,0-.364-.948A11.9,11.9,0,0,1,5.832,22.62l.455-2.375.219-.071a1.582,1.582,0,0,0,1.014-1.991l-.161-.5a.561.561,0,0,1,0-.35,1.58,1.58,0,0,0-1.2-2.043l-1.146-.224L2.8,13.39a.508.508,0,0,0-.464-.079l-1.295.421a11.971,11.971,0,0,1,0-1.386c.051.048.084.08.1.1a.532.532,0,0,0,.5.254,7.376,7.376,0,0,0,.91-.1c.428-.063.855-.135.859-.135a.508.508,0,0,0,.336-.787l-.623-.913.892-.638a.508.508,0,0,0,.145-.161L5.546,7.55l.557-.6a2.145,2.145,0,0,0,.414-2.275,2.335,2.335,0,0,0-.925-1.089,11.966,11.966,0,0,1,7.272-2.563l-.907,1.137L8.595,3.342a.508.508,0,0,0-.3.285L7.354,5.9a.508.508,0,0,0,.056.489L8.782,8.314a4.826,4.826,0,0,0-.616.764c-.1.142-.195.276-.26.352s-.114.129-.17.193a4.752,4.752,0,0,0-.817,1.134,3.026,3.026,0,0,0,.251,3.059A2.85,2.85,0,0,0,9.861,14.97a3.954,3.954,0,0,0,.5-.1c.435-.108.573-.118.713.012.068.064.074.076.073.291a1.974,1.974,0,0,0,.045.5,1.6,1.6,0,0,0,.429.7,1.138,1.138,0,0,1,.184.235,1.264,1.264,0,0,1-.062,1.05l-.039.121a2.85,2.85,0,0,0,.373,2.038c.092.2.178.393.235.561.457,1.355.8,1.665,1.074,1.79a1.058,1.058,0,0,0,.443.094,2.84,2.84,0,0,0,1.847-1.111,1.561,1.561,0,0,0,.314-.739.81.81,0,0,1,.065-.227,1.331,1.331,0,0,1,.167-.214,1.761,1.761,0,0,0,.415-.69,1.117,1.117,0,0,1,.345-.541l.112-.12a1.628,1.628,0,0,0,.318-1.893c-.155-.5.116-.821.773-1.433a5.485,5.485,0,0,0,.806-.868,1.1,1.1,0,0,0,.215-1.017c-.184-.426-.651-.5-1.026-.555a1.683,1.683,0,0,1-.443-.1,2.4,2.4,0,0,1-.692-1.049c-.037-.083-.074-.164-.111-.243-.066-.141-.132-.312-.2-.492a4.26,4.26,0,0,0-.751-1.4,3.243,3.243,0,0,0-1.457-.647c-.179-.048-.348-.094-.46-.135a.507.507,0,0,0-.292-.018A1.318,1.318,0,0,0,13.227,9a.631.631,0,0,0-.181.243,5.808,5.808,0,0,1-.6-.364l-.01-.007a.72.72,0,0,0-.045-.489c-.284-.6-1.225-.553-1.411-.537-.106.009-.239.014-.38.019-.222.008-.467.017-.71.044L9.9,7.869a1.3,1.3,0,0,1,1.219-.858h.289a.508.508,0,0,0,0-1.016h-.289a2.318,2.318,0,0,0-1.966,1.1L8.4,6.031l.745-1.806,3.286-1.152a.508.508,0,0,0,.229-.163l1.461-1.832a11.975,11.975,0,0,1,9.258,5.934,11.85,11.85,0,0,1,1.2,2.907l-.215.192a1.356,1.356,0,0,0-.452.987s0,.008,0,.012l-.351-.964a1.268,1.268,0,0,0-.229-.392L22.7,9.021a1.273,1.273,0,0,0-.969-.447h-.766a.735.735,0,0,0-.612,1.143l.077.116a5.628,5.628,0,0,1-1.677,1l-1.05-2.011V8.371A.507.507,0,0,0,17.551,8l-.945-.9a.508.508,0,0,0-.182-.112l-.851-.3a.508.508,0,1,0-.337.958l.748.263.709.677v.356a.508.508,0,0,0,.058.235L18.064,11.7a.508.508,0,0,0,.626.241l.383-.141a6.646,6.646,0,0,0,2.383-1.525.508.508,0,0,0,.063-.641l-.027-.041h.242a.258.258,0,0,1,.2.091l.626.732a.258.258,0,0,1,.046.08l.69,1.9a.508.508,0,0,0,.836.185l.329-.329a1.585,1.585,0,0,0,.42-.763A12.025,12.025,0,0,1,20.414,22.42a.508.508,0,0,0,.627.8A13,13,0,0,0,24.258,6.505ZM2.4,14.359,4.5,15.951a.507.507,0,0,0,.21.094l1.262.247a.564.564,0,0,1,.428.73,1.57,1.57,0,0,0,0,.98l.161.5a.565.565,0,0,1-.362.711l-.5.164a.508.508,0,0,0-.342.387l-.406,2.12a12.115,12.115,0,0,1-2.313-2.885,11.918,11.918,0,0,1-1.475-4.229Zm2.959-8.1-.6.64a.51.51,0,0,0-.069.094L3.338,9.362l-1.206.862a.508.508,0,0,0-.124.7l.451.661c-.26.039-.493.071-.648.087l-.093-.088c-.121-.112-.288-.262-.538-.481A12,12,0,0,1,4.755,4.312a1.32,1.32,0,0,1,.823.753A1.127,1.127,0,0,1,5.361,6.26ZM9.5,9.035a3.256,3.256,0,0,1,1.136-.16c.154-.005.3-.011.429-.021a1.381,1.381,0,0,1,.216,0,.508.508,0,0,0,.234.632c.1.051.228.139.368.233a2.926,2.926,0,0,0,1.269.591.843.843,0,0,0,.69-.287L13.865,10A.544.544,0,0,0,14,9.835l.254.07a3.381,3.381,0,0,1,.984.364,3.6,3.6,0,0,1,.542,1.067c.076.2.148.384.229.557.035.074.069.151.1.228A3.171,3.171,0,0,0,17.177,13.6a2.1,2.1,0,0,0,.845.257l.111.017a4.91,4.91,0,0,1-.644.676c-.629.585-1.411,1.314-1.051,2.476.17.549.178.608-.1.906l-.1.112a2.087,2.087,0,0,0-.572.929.793.793,0,0,1-.207.323,2.267,2.267,0,0,0-.284.376,1.646,1.646,0,0,0-.184.539.622.622,0,0,1-.106.3,2.96,2.96,0,0,1-.641.567.838.838,0,0,1-.425.169,3.623,3.623,0,0,1-.547-1.193c-.073-.217-.175-.441-.273-.657a2.177,2.177,0,0,1-.331-1.306l.038-.116a2.218,2.218,0,0,0,.034-1.758,1.831,1.831,0,0,0-.37-.527.944.944,0,0,1-.194-.258,1.1,1.1,0,0,1-.017-.257,1.259,1.259,0,0,0-.394-1.04,1.636,1.636,0,0,0-1.651-.257,3.185,3.185,0,0,1-.371.077A1.824,1.824,0,0,1,8,13.222a2.01,2.01,0,0,1-.158-2.032,3.856,3.856,0,0,1,.657-.893c.059-.066.118-.133.178-.2.1-.114.208-.269.323-.432A3.671,3.671,0,0,1,9.5,9.035Z" transform="translate(0 -0.001)" fill="#fff"/>
      </g>
    </g>
    <g id="Group_7" data-name="Group 7" transform="translate(17.782 16.186)">
      <g id="Group_6" data-name="Group 6">
        <path id="Path_3" data-name="Path 3" d="M353.19,320.01l-.244-.921a.508.508,0,0,0-.937-.112c-.056.1-.106.211-.154.316a2.182,2.182,0,0,1-.254.461,1.122,1.122,0,0,1-.3.177,1.4,1.4,0,0,0-.846.822,1.487,1.487,0,0,0-.034.716.462.462,0,0,1-.013.3l-.005.012a1.709,1.709,0,0,0-.041,1.686,1.058,1.058,0,0,0,.863.539.826.826,0,0,0,.135-.011c.518-.085.907-.623,1.226-1.7l.6-2.013A.508.508,0,0,0,353.19,320.01Zm-1.575,2a3.08,3.08,0,0,1-.389.915l-.031-.042c-.1-.138.048-.479.144-.7l.005-.012a1.429,1.429,0,0,0,.083-.846.533.533,0,0,1,0-.264c.02-.063.139-.125.318-.211.079-.038.167-.081.255-.132Z" transform="translate(-350.15 -318.712)" fill="#fff"/>
      </g>
    </g>
    <g id="Group_9" data-name="Group 9" transform="translate(13.003 5.996)">
      <g id="Group_8" data-name="Group 8">
        <path id="Path_4" data-name="Path 4" d="M256.754,118.1l-.034-.012a.508.508,0,1,0-.336.958l.034.012a.508.508,0,1,0,.336-.958Z" transform="translate(-256.044 -118.059)" fill="#fff"/>
      </g>
    </g>
  </g>
</svg>
