<svg xmlns="http://www.w3.org/2000/svg" width="27.068" height="28.003" viewBox="0 0 27.068 28.003">
  <g id="passport" transform="translate(0 0.003)">
    <path id="Path_14" data-name="Path 14" d="M27.022,3.681a.468.468,0,0,0-.265-.239L17.075.025a.467.467,0,0,0-.6.285l-2.2,6.223h-.962V4.945a1.4,1.4,0,0,0-1.758-1.353L.348,6.547v.008A.46.46,0,0,0,0,7V26.6A1.4,1.4,0,0,0,1.4,28H14.467a1.4,1.4,0,0,0,1.4-1.4V22.365l3.743,1.321a.467.467,0,0,0,.6-.285L27.042,4.038a.466.466,0,0,0-.02-.357ZM11.8,4.492a.467.467,0,0,1,.586.451V6.532H4.065ZM14.934,26.6a.467.467,0,0,1-.467.467H1.4A.467.467,0,0,1,.933,26.6V7.465H14.467a.467.467,0,0,1,.467.467ZM18.771,9.242l.6-.283.285.6-2.268,6.418a.468.468,0,0,0,.019.357l.486,1.016-.15.426-.926-.958a.466.466,0,0,0-.393-.14l-.553.07v-.625l.4-.191a.468.468,0,0,0,.239-.265l.933-2.64Zm.88,3.115L20.6,13.88l-.162.459L19.3,13.346Zm-3.783,2.3V13.379l.459-.019Zm.793-2.249-.793.033V11.82l1.143-.4Zm2.82,10.239-3.613-1.275V17.683l.437-.055,1.29,1.334a.467.467,0,0,0,.336.14.437.437,0,0,0,.1-.011.466.466,0,0,0,.341-.3l.467-1.32a.465.465,0,0,0-.019-.356L18.329,16.1l.639-1.808,1.371,1.2a.467.467,0,0,0,.308.116.459.459,0,0,0,.118-.015.467.467,0,0,0,.322-.3l.467-1.32a.466.466,0,0,0-.044-.4l-1.461-2.347L20.6,9.679a.467.467,0,0,0-.019-.357l-.569-1.19a.467.467,0,0,0-.623-.22L18.2,8.481a.466.466,0,0,0-.238.265L17.408,10.3l-1.54.537v-2.9A1.4,1.4,0,0,0,15.2,6.743l.763-2.163.171-.485,1.074-3.034,8.8,3.107Zm0,0" fill="#222"/>
    <path id="Path_15" data-name="Path 15" d="M397.055,107.927l.311-.88.8.282-.311.88Zm0,0" transform="translate(-373.892 -100.804)" fill="#222"/>
    <path id="Path_16" data-name="Path 16" d="M287.328,69.193l.311-.88.8.283-.311.88Zm0,0" transform="translate(-270.566 -64.329)" fill="#222"/>
    <path id="Path_17" data-name="Path 17" d="M369.621,98.243l.311-.88.8.283-.311.88Zm0,0" transform="translate(-348.058 -91.685)" fill="#222"/>
    <path id="Path_18" data-name="Path 18" d="M314.762,78.88l.311-.88.8.283-.311.88Zm0,0" transform="translate(-296.4 -73.452)" fill="#222"/>
    <path id="Path_19" data-name="Path 19" d="M342.191,88.556l.311-.88.8.283-.311.88Zm0,0" transform="translate(-322.229 -82.563)" fill="#222"/>
    <path id="Path_20" data-name="Path 20" d="M56.98,160a4.667,4.667,0,1,0,4.667,4.667A4.667,4.667,0,0,0,56.98,160Zm3.37,3.071-.637-.14c-.28-.062-.56-.111-.843-.153-.043-.283-.093-.564-.153-.843l-.14-.636a3.749,3.749,0,0,1,1.773,1.772Zm-7.1,1.6a3.7,3.7,0,0,1,.047-.57l1.154-.257q.265-.059.534-.1a12.774,12.774,0,0,0,0,1.858q-.269-.047-.534-.1l-1.154-.257a3.7,3.7,0,0,1-.051-.578Zm2.682-1.051a11.828,11.828,0,0,1,2.1,0,11.785,11.785,0,0,1,0,2.1,11.785,11.785,0,0,1-2.1,0,11.783,11.783,0,0,1,0-2.1Zm3.049.122c.179.031.357.063.534.1l1.154.257a3.369,3.369,0,0,1,0,1.14l-1.154.257q-.265.059-.534.1a12.715,12.715,0,0,0,0-1.858Zm-1.427-2.758.257,1.155q.059.266.1.534a12.722,12.722,0,0,0-1.859,0q.046-.269.1-.534l.257-1.155a3.4,3.4,0,0,1,1.14,0Zm-2.166.315-.14.637c-.062.28-.111.56-.153.843q-.424.064-.843.153l-.637.14a3.751,3.751,0,0,1,1.773-1.771Zm-1.774,4.966.637.14c.28.062.56.111.843.153q.064.424.153.843l.14.636a3.75,3.75,0,0,1-1.774-1.771Zm2.8,2.09-.257-1.155c-.04-.176-.072-.355-.1-.533.309.023.619.038.93.038s.62-.015.929-.038c-.031.178-.064.357-.1.533l-.257,1.155a3.4,3.4,0,0,1-1.149,0Zm2.166-.315.14-.637c.062-.28.111-.56.153-.843.282-.042.564-.093.843-.153l.636-.14a3.748,3.748,0,0,1-1.773,1.774Zm0,0" transform="translate(-49.261 -150.668)" fill="#222"/>
    <path id="Path_21" data-name="Path 21" d="M68.313,384H75.78v.933H68.313Zm0,0" transform="translate(-64.328 -361.6)" fill="#222"/>
    <path id="Path_22" data-name="Path 22" d="M84.313,416h5.6v.933h-5.6Zm0,0" transform="translate(-79.394 -391.734)" fill="#222"/>
    <path id="Path_23" data-name="Path 23" d="M124.313,352h.933v.933h-.933Zm0,0" transform="translate(-117.061 -331.467)" fill="#222"/>
    <path id="Path_24" data-name="Path 24" d="M92.313,352h.933v.933h-.933Zm0,0" transform="translate(-86.927 -331.467)" fill="#222"/>
    <path id="Path_25" data-name="Path 25" d="M156.313,352h.933v.933h-.933Zm0,0" transform="translate(-147.194 -331.467)" fill="#222"/>
  </g>
</svg>
