<svg xmlns="http://www.w3.org/2000/svg" width="24.958" height="28.003" viewBox="0 0 24.958 28.003">
  <g id="passenger" transform="translate(0 0.003)">
    <g id="Group_11" data-name="Group 11" transform="translate(2.076 12.173)">
      <g id="Group_10" data-name="Group 10">
        <path id="Path_11" data-name="Path 11" d="M426.464,222.743a.546.546,0,1,1-.16.387A.552.552,0,0,1,426.464,222.743Z" transform="translate(-426.304 -222.583)" fill="#222"/>
      </g>
    </g>
    <g id="Group_13" data-name="Group 13">
      <g id="Group_12" data-name="Group 12">
        <path id="Path_12" data-name="Path 12" d="M28.137,1.13A2.5,2.5,0,0,1,32.68,2l.058.281A3.164,3.164,0,0,1,38.9,3.294V3.77a3.155,3.155,0,0,1-1,2.309,3.509,3.509,0,0,1,.656.337,3.461,3.461,0,0,1,1.5,2.207l.446,2.223,1.025,1.031H45.8a1.769,1.769,0,0,1,1.635,2.445h.443a2.259,2.259,0,0,1,2.186,1.689l.645,2.477a.547.547,0,1,1-1.058.276L49,16.287a1.165,1.165,0,0,0-1.127-.871h-8.02a.546.546,0,0,1-.389-.162l-2.769-2.8a.547.547,0,1,1,.777-.77l2.608,2.635h5.7a.676.676,0,0,0,0-1.352h-4.5a.547.547,0,0,1-.388-.161l-3.13-3.148a.547.547,0,1,1,.776-.771l.547.55-.12-.6a2.388,2.388,0,1,0-4.676.969.1.1,0,0,1,0,.012l1.371,6.616a1.647,1.647,0,0,0,1.607,1.308h7.775a2.517,2.517,0,0,1,2.489,2.242.549.549,0,0,1,.027.077l1.675,6.429a.55.55,0,0,0,.533.412h1.27a.55.55,0,0,0,.533-.689l-.913-3.506a.547.547,0,0,1,1.058-.276l.913,3.506A1.644,1.644,0,0,1,51.048,28h-1.27a1.644,1.644,0,0,1-1.591-1.23L46.919,21.9c-.025.028-.051.056-.077.083a2.574,2.574,0,0,1-1.826.769H42.354l1.87,4.49a.547.547,0,0,1-.5.757H35.283a.547.547,0,0,1-.5-.757l1.87-4.49H33.907a2.513,2.513,0,0,1-2.451-2l-1.2-5.777a.547.547,0,1,1,1.071-.222l1.2,5.777a1.415,1.415,0,0,0,1.38,1.123H45.016a1.473,1.473,0,0,0,1.045-.441,1.378,1.378,0,0,0,.4-1,1.416,1.416,0,0,0-1.409-1.382H37.28a2.745,2.745,0,0,1-2.68-2.169L31.609,2.218a1.409,1.409,0,1,0-2.76.572l1.625,7.841a.547.547,0,1,1-1.071.222L27.778,3.011a2.487,2.487,0,0,1,.359-1.881Zm9.7,21.623L36.1,26.906h6.8l-1.73-4.154ZM35.734,5.84A2.073,2.073,0,0,0,37.8,3.77V3.294a2.07,2.07,0,0,0-4.14,0V3.77a2.073,2.073,0,0,0,2.07,2.07ZM33.786,7.332a3.486,3.486,0,0,1,.63-.687,3.177,3.177,0,0,1-.9-.623Z" transform="translate(-27.725)" fill="#222"/>
      </g>
    </g>
    <g id="Group_15" data-name="Group 15" transform="translate(22.389 19.973)">
      <g id="Group_14" data-name="Group 14">
        <path id="Path_13" data-name="Path 13" d="M55.037,365.371a.547.547,0,1,1-.16.387.547.547,0,0,1,.16-.387Z" transform="translate(-54.877 -365.211)" fill="#222"/>
      </g>
    </g>
  </g>
</svg>
