<svg xmlns="http://www.w3.org/2000/svg" width="37.712" height="37.439" viewBox="0 0 37.712 37.439">
  <g id="time-left" transform="translate(0 -1.688)">
    <g id="Layer_2_16_" transform="translate(0 1.688)">
      <g id="Group_16" data-name="Group 16" transform="translate(0 0)">
        <path id="Path_51" data-name="Path 51" d="M254.85,423.2c-.311.077-.628.146-.943.2a1.516,1.516,0,0,0,.552,2.982c.375-.07.752-.151,1.123-.244a1.516,1.516,0,0,0-.733-2.942Z" transform="translate(-232.184 -388.988)" fill="#fff"/>
        <path id="Path_52" data-name="Path 52" d="M412.9,139.2a1.516,1.516,0,0,0,2.878-.953c-.12-.362-.253-.726-.394-1.079a1.516,1.516,0,1,0-2.815,1.126C412.688,138.587,412.8,138.892,412.9,139.2Z" transform="translate(-379.023 -125.305)" fill="#fff"/>
        <path id="Path_53" data-name="Path 53" d="M322.447,394.163c-.267.177-.543.347-.822.508a1.516,1.516,0,1,0,1.515,2.626c.331-.191.659-.393.978-.6a1.516,1.516,0,0,0-1.671-2.53Z" transform="translate(-294.855 -362.115)" fill="#fff"/>
        <path id="Path_54" data-name="Path 54" d="M430.665,208.768a1.516,1.516,0,1,0-3.03.119c.013.32.016.644.008.964a1.516,1.516,0,1,0,3.031.067C430.684,209.536,430.68,209.15,430.665,208.768Z" transform="translate(-392.967 -190.642)" fill="#fff"/>
        <path id="Path_55" data-name="Path 55" d="M379.843,344.372a1.515,1.515,0,0,0-2.123.3c-.192.257-.4.51-.6.754a1.517,1.517,0,0,0,.171,2.137c.036.031.073.059.111.086a1.516,1.516,0,0,0,2.026-.257c.248-.291.489-.594.719-.9A1.516,1.516,0,0,0,379.843,344.372Z" transform="translate(-346.214 -316.313)" fill="#fff"/>
        <path id="Path_56" data-name="Path 56" d="M416.068,279.421a1.516,1.516,0,0,0-1.9.993c-.1.305-.2.612-.317.912a1.516,1.516,0,0,0,2.833,1.08c.136-.357.262-.722.377-1.085A1.516,1.516,0,0,0,416.068,279.421Z" transform="translate(-380.21 -256.842)" fill="#fff"/>
        <path id="Path_57" data-name="Path 57" d="M16.052,36.118a15.654,15.654,0,0,1-3.889-1.236c-.015-.008-.028-.016-.043-.023-.291-.137-.581-.283-.862-.436l0,0a16.171,16.171,0,0,1-1.508-.943A15.82,15.82,0,0,1,9.812,7.565l.054-.038a15.847,15.847,0,0,1,17.761-.142L26.442,9.1c-.329.476-.127.823.45.772l5.145-.461A.848.848,0,0,0,32.8,8.3L31.423,3.32c-.155-.558-.551-.625-.88-.149L29.355,4.887A18.723,18.723,0,0,0,15.636,1.97q-.728.126-1.436.306l-.009,0-.054.015A18.694,18.694,0,0,0,3.77,9.24c-.022.026-.044.051-.065.079-.086.116-.171.234-.255.353-.137.194-.271.393-.4.592-.016.024-.028.048-.043.073A18.691,18.691,0,0,0,.02,21.362c0,.013,0,.026,0,.039.017.38.047.766.088,1.145,0,.024.008.048.012.072.042.382.1.764.162,1.147A18.71,18.71,0,0,0,5.558,33.912l.02.02.007.006A19.1,19.1,0,0,0,8,35.956,18.693,18.693,0,0,0,15.516,39.1a1.516,1.516,0,0,0,.535-2.984Z" transform="translate(0 -1.688)" fill="#fff"/>
        <path id="Path_58" data-name="Path 58" d="M207.214,83.2a1.227,1.227,0,0,0-1.227,1.227V96.645l11.177,5.778a1.226,1.226,0,0,0,1.126-2.179l-9.85-5.092V84.425A1.226,1.226,0,0,0,207.214,83.2Z" transform="translate(-189.288 -76.59)" fill="#fff"/>
      </g>
    </g>
  </g>
</svg>
