<svg xmlns="http://www.w3.org/2000/svg" width="22.8" height="36" viewBox="0 0 22.8 36">
  <g id="hourglass" transform="translate(-93.867)">
    <g id="Group_68" data-name="Group 68" transform="translate(93.867)">
      <g id="Group_67" data-name="Group 67">
        <path id="Path_62" data-name="Path 62" d="M114.867,0h-19.2a1.8,1.8,0,1,0,0,3.6h19.2a1.8,1.8,0,1,0,0-3.6Zm0,2.4h-19.2a.6.6,0,0,1,0-1.2h19.2a.6.6,0,1,1,0,1.2Z" transform="translate(-93.867 0)" fill="#fff"/>
      </g>
    </g>
    <g id="Group_70" data-name="Group 70" transform="translate(93.867 32.4)">
      <g id="Group_69" data-name="Group 69">
        <path id="Path_63" data-name="Path 63" d="M114.867,460.8h-19.2a1.8,1.8,0,1,0,0,3.6h19.2a1.8,1.8,0,1,0,0-3.6Zm0,2.4h-19.2a.6.6,0,0,1,0-1.2h19.2a.6.6,0,1,1,0,1.2Z" transform="translate(-93.867 -460.8)" fill="#fff"/>
      </g>
    </g>
    <g id="Group_72" data-name="Group 72" transform="translate(96.267 2.4)">
      <g id="Group_71" data-name="Group 71">
        <path id="Path_64" data-name="Path 64" d="M141.276,47.507A16.024,16.024,0,0,0,146,36.1V34.734a.6.6,0,0,0-.6-.6H128.6a.6.6,0,0,0-.6.6V36.1a16.025,16.025,0,0,0,4.724,11.405l.6.6a2.3,2.3,0,0,1,0,3.248l-.6.6A16.023,16.023,0,0,0,128,63.367v1.367a.6.6,0,0,0,.6.6h16.8a.6.6,0,0,0,.6-.6V63.367a16.024,16.024,0,0,0-4.724-11.405l-.6-.6a2.3,2.3,0,0,1,0-3.248Zm-1.451-.245a3.5,3.5,0,0,0,0,4.945l.6.6A14.832,14.832,0,0,1,144.8,63.367v.767H129.2v-.767a14.833,14.833,0,0,1,4.372-10.557l.6-.6a3.5,3.5,0,0,0,0-4.945l-.6-.6A14.832,14.832,0,0,1,129.2,36.1v-.767h15.6V36.1a14.832,14.832,0,0,1-4.373,10.557Z" transform="translate(-128 -34.134)" fill="#fff"/>
      </g>
    </g>
    <g id="Group_74" data-name="Group 74" transform="translate(100.468 8.041)">
      <g id="Group_73" data-name="Group 73">
        <path id="Path_65" data-name="Path 65" d="M197.611,116.429a.853.853,0,0,0-.871-.508c-3.118,0-4.507-.668-5.057-1.066a2.565,2.565,0,0,0-2.36-.347,2.365,2.365,0,0,0-1.517,1.629,1.957,1.957,0,0,0-.064.329.633.633,0,0,0,.075.35,13.338,13.338,0,0,0,2.144,2.981l.6.6a4.662,4.662,0,0,1,1.376,3.321.6.6,0,1,0,1.2,0,4.666,4.666,0,0,1,1.375-3.321l.6-.6c.148-.148.341-.33.554-.529C197.224,117.809,197.876,117.1,197.611,116.429Zm-2.761,1.964c-.222.209-.425.4-.58.555l-.6.6a5.894,5.894,0,0,0-1.127,1.571,5.892,5.892,0,0,0-1.127-1.571l-.6-.6a11.508,11.508,0,0,1-1.837-2.528,1.173,1.173,0,0,1,.75-.782,1.365,1.365,0,0,1,1.256.188c.764.553,2.272,1.205,5.159,1.286C195.767,117.531,195.185,118.078,194.85,118.393Z" transform="translate(-187.741 -114.362)" fill="#fff"/>
      </g>
    </g>
    <g id="Group_76" data-name="Group 76" transform="translate(98.707 25.2)">
      <g id="Group_75" data-name="Group 75">
        <path id="Path_66" data-name="Path 66" d="M175.815,363.753a5.2,5.2,0,0,0-1.833-3.689c-.122-.127-.249-.258-.379-.4a4.015,4.015,0,0,0-2.921-1.267H167.83a4.016,4.016,0,0,0-2.921,1.267c-.13.139-.257.27-.379.4a5.2,5.2,0,0,0-1.833,3.69.6.6,0,0,0,.6.646h11.921a.6.6,0,0,0,.6-.647Zm-11.836-.553a4.17,4.17,0,0,1,1.415-2.3c.126-.131.257-.267.391-.41a2.809,2.809,0,0,1,2.045-.887h2.851a2.813,2.813,0,0,1,2.045.886c.135.145.266.28.392.412a4.177,4.177,0,0,1,1.415,2.3Z" transform="translate(-162.696 -358.4)" fill="#fff"/>
      </g>
    </g>
    <g id="Group_78" data-name="Group 78" transform="translate(104.649 19.2)">
      <g id="Group_77" data-name="Group 77">
        <path id="Path_67" data-name="Path 67" d="M247.811,273.067a.6.6,0,0,0-.6.6v.6a.6.6,0,0,0,1.2,0v-.6A.6.6,0,0,0,247.811,273.067Z" transform="translate(-247.211 -273.067)" fill="#fff"/>
      </g>
    </g>
    <g id="Group_80" data-name="Group 80" transform="translate(104.649 22.2)">
      <g id="Group_79" data-name="Group 79">
        <path id="Path_68" data-name="Path 68" d="M247.811,315.733a.6.6,0,0,0-.6.6v.6a.6.6,0,0,0,1.2,0v-.6A.6.6,0,0,0,247.811,315.733Z" transform="translate(-247.211 -315.733)" fill="#fff"/>
      </g>
    </g>
  </g>
</svg>
