<svg id="Capa_1" enable-background="new 0 0 507.974 507.974" height="512" viewBox="0 0 507.974 507.974" width="512" xmlns="http://www.w3.org/2000/svg"><g><path d="m502.364 411.495-87.992-42.994c-6.643-3.246-14.39 1.591-14.39 8.985v32.994h-87.463c-3.367-11.27-12.267-20.17-23.537-23.537v-51.788c29.722-2.146 51.854-14.833 69.653-30.342 35.623-31.038 49.672-68.104 53.801-96.142 5.626 3.28 12.409 5.142 20.875 5.142 10.2 0 20.653-5.437 27.373-13.084 15.104-17.186 9.588-39.056-.586-50.667-6.281-7.168-20.292-19.882-29.337-27.91l9.346-1.454c5.457-.849 9.193-5.961 8.344-11.418s-5.962-9.197-11.418-8.344l-11.595 1.804c-1.026-3.24-2.479-6.428-4.39-9.365 5.215-7.993 7.272-17.717 5.566-27.395-3.568-20.236-22.985-34.169-43.288-31.059l-44.17 6.731c-18.454 2.795-32.37 18.995-32.37 37.682 0 17.912 12.424 32.969 29.104 37.029l-62.91 69.896c-3.82 4.2-8.355 6.39-14.22 6.39-12.038 0-17.28-9.5-18.57-13.73 0 0-8.933-29.269-9.76-31.48-4.667-12.47-23.397-5.46-18.73 7.01.7 1.87 9.34 30.23 9.34 30.23 1.758 5.876 7.252 17.235 19.007 23.518-3.277 2.662-6.44 5.494-9.459 8.512-3.905 3.905-3.905 10.237 0 14.143 3.905 3.905 10.237 3.905 14.143 0 23.887-23.887 58.043-34.667 91.368-28.842 14.05 2.457 25.518 11.371 31.463 24.457 5.879 12.942 5.071 27.262-2.217 39.288-7.519 12.405-17.35 23.104-29.298 31.427-16.14 11.065-35.073 17.993-56.047 18.298-49.317.718-83.401-39.193-98.033-65.803l7.128-3.325c5.005-2.335 7.17-8.285 4.835-13.29-2.334-5.005-8.282-7.168-13.29-4.835 0 0-16.4 7.648-16.41 7.653-5.946 2.757-12.25 4.18-18.75 4.18-17.18-.01-32.51-9.6-40.01-25.01l-12.74-26.18c-2.25-4.696-7.814-6.486-12.16-5.1-4.63 1.478-9.38 2.73-14.17 3.56 0 0-1.549-21.043 13.34-35.12 8.848-8.365 20.061-13.207 32.22-13.34 13.463-.148 13.243-20.148-.22-20-14.24.03-28.28 3.75-40.62 10.76-6.39 3.62-13.65 5.54-21 5.54-9.6 0-19.06-3.25-26.63-9.16 22.19-25.86 54.43-40.69 88.47-40.69 15.86 0 31.123 3.393 45.36 10.11 12.062 5.69 20.591-12.39 8.53-18.08-8.253-3.894-28.676-12.03-53.9-12.03-67.938 0-103.84 47.28-110.03 55.69-2.75 3.75-2.53 9.02.54 12.52 12.04 13.75 29.939 22.499 50.85 21.56-7.878 15.68-7.152 30.535-6.91 43.45.141 7.507 6.483 10.214 10.59 9.98 7.211-.411 14.43-1.54 21.45-3.31l9.05 18.6c12.135 23.993 34.2 35.67 58 36.25 5.21.127 12.08-.86 17.91-2.56 6.414 12.363 41.069 71.281 105.58 77.448v51.996c-11.27 3.367-20.17 12.267-23.537 23.537h-74.773l-21.139-37.874c-1.766-3.165-5.107-5.126-8.732-5.126h-105.687c-7.622 0-12.442 8.186-8.745 14.851l15.615 28.149h-7.001c-5.523 0-10 4.477-10 10s4.477 10 10 10h7.003l-15.609 28.151c-3.696 6.665 1.124 14.849 8.745 14.849h105.68c3.625 0 6.965-1.961 8.732-5.126l21.139-37.874h74.775c4.314 14.44 17.712 25 33.537 25s29.223-10.56 33.537-25h87.463v32.994c0 7.394 7.747 12.231 14.39 8.985l87.992-42.994c7.479-3.656 7.479-14.316-.001-17.971zm-85.742-271.005c.58-.604 1.275-1.368 2.023-2.277 8.644 7.746 21.009 19.046 26.419 25.039 15.532 17.207-7.887 40.616-25.245 26.096-3.76-3.146-5.958-7.578-6.293-12.358-.07-.995-2.514-21.13-2.514-22.02.01-5.57 2-10.72 5.61-14.48zm-89.835-61.155c0-8.882 6.605-16.581 15.374-17.909l44.188-6.734c9.645-1.479 18.875 5.144 20.57 14.761.684 3.876.093 7.769-1.594 11.173-1.304-.461-2.658-.846-4.072-1.126-4.198-.832-18.464-1.859-27.62 1.46-5.244 1.901-10.11 4.87-13.94 8.96-4.455 4.95-9.4 7.529-14.791 7.529-9.989 0-18.115-8.126-18.115-18.114zm12.758 102.974c-11.743-2.053-23.572-2.363-35.148-1.064l69.855-77.615c1.75-1.82 3.419-2.931 5.8-3.73 5.382-1.807 15.888-1.051 17.53-.74 6.304 1.191 9.787 9.514 9.61 14.98-.152 4.678-1.79 9.13-5.02 12.52-7.19 7.53-11.16 17.59-11.15 28.31 0 2.54 2.549 23.444 2.79 31.47.368 12.263-1.578 25.275-5.557 38.134-.708-2.155-1.531-4.285-2.482-6.379-8.592-18.911-25.873-32.327-46.228-35.886zm-204.616 271.171h-82.913l12.837-23h82.914zm-70.076-43-12.837-23h82.914l12.837 23zm214.129 25c-8.271 0-15-6.729-15-15s6.729-15 15-15 15 6.729 15 15-6.729 15-15 15zm141 11.983v-53.967l55.222 26.983zm-222.363-344.593c5.523 0 10 4.477 10 10s-4.477 10-10 10-10-4.477-10-10c-.001-5.523 4.477-10 10-10z"/></g></svg>