<svg xmlns="http://www.w3.org/2000/svg" width="42.647" height="36.674" viewBox="0 0 42.647 36.674">
  <g id="cinema" transform="translate(0 -0.27)">
    <path id="Path_69" data-name="Path 69" d="M331.41,131.781l1-1,1,1-1,1Zm0,0" transform="translate(-302.241 -119.028)" fill="#fff"/>
    <path id="Path_70" data-name="Path 70" d="M308.773,109.144l1-1,1,1-1,1Zm0,0" transform="translate(-281.596 -98.384)" fill="#fff"/>
    <path id="Path_71" data-name="Path 71" d="M286.148,86.527l1-1,1,1-1,1Zm0,0" transform="translate(-260.962 -77.757)" fill="#fff"/>
    <path id="Path_72" data-name="Path 72" d="M376.664,177.031l1-1,1,1-1,1Zm0,0" transform="translate(-343.512 -160.295)" fill="#fff"/>
    <path id="Path_73" data-name="Path 73" d="M354.035,154.4l1-1,1,1-1,1Zm0,0" transform="translate(-322.874 -139.655)" fill="#fff"/>
    <path id="Path_74" data-name="Path 74" d="M202.534,189.289a.7.7,0,0,1-.627-.384l-1.272-2.494-2.764.437a.7.7,0,0,1-.609-1.2l1.979-1.979-1.267-2.494a.7.7,0,0,1,.947-.947l2.5,1.268,1.979-1.98a.7.7,0,0,1,1.2.608l-.448,2.771,2.495,1.272a.7.7,0,0,1-.211,1.322l-2.765.438-.434,2.765a.7.7,0,0,1-.585.585.661.661,0,0,1-.11.009Zm-1.5-4.361a.7.7,0,0,1,.627.385l.519,1.019.179-1.127a.7.7,0,0,1,.586-.585l1.126-.179-1.019-.519a.7.7,0,0,1-.376-.737l.179-1.13-.806.808a.7.7,0,0,1-.818.129l-1.02-.519.52,1.019a.7.7,0,0,1-.13.817l-.809.81,1.13-.179a.661.661,0,0,1,.11-.011Zm0,0" transform="translate(-179.709 -163.279)" fill="#fff"/>
    <path id="Path_75" data-name="Path 75" d="M42.029,10.847,38.543,7.361l-.5.5a2.112,2.112,0,1,1-2.987-2.987l.5-.5L32.071.889a2.112,2.112,0,0,0-2.988,0L26.594,3.378,25.1,1.884a2.112,2.112,0,0,0-2.988,0L.619,23.378a2.112,2.112,0,0,0,0,2.988L4.1,29.852l.5-.5a2.163,2.163,0,0,1,2.988,0,2.112,2.112,0,0,1,0,2.987l-.5.5,3.486,3.486a2.112,2.112,0,0,0,2.987,0l2.489-2.49,1.494,1.494a2.112,2.112,0,0,0,2.987,0l21.494-21.5a2.112,2.112,0,0,0,0-2.988ZM12.568,35.328a.7.7,0,0,1-1,0l-2.538-2.54a3.521,3.521,0,0,0-4.88-4.88L1.614,25.37a.7.7,0,0,1,0-1L23.109,2.88a.7.7,0,0,1,1,0L25.6,4.374,7.589,22.384a2.112,2.112,0,0,0,0,2.987l3.485,3.486.5-.5a2.112,2.112,0,1,1,2.987,2.987l-.5.5,1,1Zm28.465-22.49L19.538,34.333a.7.7,0,0,1-1,0L16,31.793a3.521,3.521,0,0,0-4.879-4.879l-2.54-2.54a.7.7,0,0,1,0-1L30.079,1.884a.7.7,0,0,1,1,0l2.539,2.535A3.521,3.521,0,0,0,38.493,9.3l2.54,2.54a.7.7,0,0,1,0,1Zm0,0" fill="#fff"/>
  </g>
</svg>
