<?xml version="1.0" encoding="iso-8859-1"?>
<!-- Generator: Adobe Illustrator 16.0.0, SVG Export Plug-In . SVG Version: 6.00 Build 0)  -->
<!DOCTYPE svg PUBLIC "-//W3C//DTD SVG 1.1//EN" "http://www.w3.org/Graphics/SVG/1.1/DTD/svg11.dtd">
<svg version="1.1" id="Capa_1" xmlns="http://www.w3.org/2000/svg" xmlns:xlink="http://www.w3.org/1999/xlink" x="0px" y="0px"
	 width="178.968px" height="178.968px" viewBox="0 0 178.968 178.968" style="enable-background:new 0 0 178.968 178.968;"
	 xml:space="preserve">
<g>
	<path d="M94.636,68.021H24.139v-5.742h70.497V68.021z M24.139,93.603h54.303v-5.779H24.139V93.603z M24.139,113.393v5.76h54.303
		v-5.76H24.139z M24.139,144.715h70.497v-5.761H24.139V144.715z M119.157,160.784l8.189-8.19c-2.782-0.134-5.528-0.512-8.189-1.15
		V160.784z M10.682,139.575V25.376c0-17.25,1.392-18.647,18.639-18.647h88.832c17.263,0,18.646,1.403,18.646,18.647v37.22
		c2.302,0.38,4.542,0.947,6.734,1.666V25.376C143.532,4.433,139.087,0,118.152,0H29.327C8.396,0,3.957,4.433,3.957,25.376v114.199
		c0,20.935,4.439,25.38,25.371,25.38h85.659v-6.734H29.327C12.073,158.221,10.682,156.832,10.682,139.575z M149.122,141.262
		c-18.706,10.784-42.722,4.379-53.521-14.352c-10.793-18.693-4.357-42.709,14.349-53.509c18.706-10.787,42.722-4.369,53.523,14.343
		C174.282,106.444,167.84,130.466,149.122,141.262z M145.889,135.654c15.618-9.024,20.977-29.046,11.978-44.661
		c-9.013-15.613-29.046-20.978-44.658-11.978c-15.625,9.009-20.998,29.03-11.959,44.654
		C110.249,139.271,130.276,144.684,145.889,135.654z M158.975,138.832l-16.843,9.743l12.97,22.444l16.843-9.742L158.975,138.832z
		 M173.704,164.358l-16.849,9.736c2.691,4.664,8.646,6.254,13.299,3.568C174.806,174.978,176.389,169.022,173.704,164.358z"/>
</g>
<g>
</g>
<g>
</g>
<g>
</g>
<g>
</g>
<g>
</g>
<g>
</g>
<g>
</g>
<g>
</g>
<g>
</g>
<g>
</g>
<g>
</g>
<g>
</g>
<g>
</g>
<g>
</g>
<g>
</g>
</svg>
