<?xml version="1.0"?>
<svg xmlns="http://www.w3.org/2000/svg" viewBox="0 0 64 64" width="512" height="512"><g id="Outline"><g><path d="M17,14a3,3,0,0,0,3-3V9h2v2a3,3,0,0,0,6,0V9h5a1,1,0,0,0,0-2H28V5a3,3,0,0,0-6,0V7H20V5a3,3,0,0,0-6,0v6A3,3,0,0,0,17,14Zm7-9a1,1,0,0,1,2,0v6a1,1,0,0,1-2,0ZM16,5a1,1,0,0,1,2,0v6a1,1,0,0,1-2,0Z"/><path d="M39,14a3,3,0,0,0,3-3V9h2v2a3,3,0,0,0,6,0V5a3,3,0,0,0-6,0V7H42V5a3,3,0,0,0-6,0v6A3,3,0,0,0,39,14Zm7-9a1,1,0,0,1,2,0v6a1,1,0,0,1-2,0ZM38,5a1,1,0,0,1,2,0v6a1,1,0,0,1-2,0Z"/><path d="M61,7H58V5a3,3,0,0,0-6,0v6a3,3,0,0,0,6,0V9h2V21H4V9H6v2a3,3,0,0,0,6,0V5A3,3,0,0,0,6,5V7H3A1,1,0,0,0,2,8V34a1,1,0,0,0,2,0V23H60V45a1,1,0,0,0,2,0V8A1,1,0,0,0,61,7Zm-5,4a1,1,0,0,1-2,0V5a1,1,0,0,1,2,0ZM8,5a1,1,0,0,1,2,0v6a1,1,0,0,1-2,0Z"/><path d="M61,48a1,1,0,0,0-1,1V60H4V38a1,1,0,0,0-2,0V61a1,1,0,0,0,1,1H61a1,1,0,0,0,1-1V49A1,1,0,0,0,61,48Z"/><path d="M16,41a1,1,0,0,0,1,1h4.029l-1.763,2.409a1,1,0,1,0,1.613,1.182L23.507,42h2.522l-1.763,2.409a1,1,0,0,0,.915,1.585l2.967-.323-1.26,2.184-4.424.481a1,1,0,1,0,.217,1.988L25.648,50,23.634,53.49a1,1,0,1,0,1.732,1L27.38,51l1.205,2.731a1,1,0,0,0,.916.6.988.988,0,0,0,.4-.085,1,1,0,0,0,.512-1.318L28.62,48.855l1.26-2.183L31.085,49.4a1,1,0,0,0,1.83,0l1.2-2.731,1.26,2.183-1.8,4.072a1,1,0,0,0,.512,1.318.988.988,0,0,0,.4.085,1,1,0,0,0,.916-.6L36.62,51l2.014,3.488a1,1,0,0,0,1.732-1L38.352,50l2.967.323a1,1,0,1,0,.217-1.988l-4.424-.481-1.26-2.184,2.967.323a1,1,0,0,0,.915-1.585L37.971,42h2.522l2.628,3.591a1,1,0,1,0,1.613-1.182L42.971,42H47a1,1,0,0,0,0-2H42.971l1.763-2.409a1,1,0,1,0-1.613-1.182L40.493,40H37.971l1.763-2.409a1,1,0,0,0-.915-1.585l-2.967.323,1.26-2.184,4.424-.481a1,1,0,1,0-.217-1.988L38.352,32l2.014-3.489a1,1,0,0,0-1.732-1L36.62,31l-1.2-2.731a1,1,0,1,0-1.83.806l1.8,4.072-1.26,2.183-1.2-2.731a1,1,0,0,0-1.83,0L29.88,35.328l-1.26-2.183,1.795-4.072a1,1,0,0,0-1.83-.806L27.38,31,25.366,27.51a1,1,0,1,0-1.732,1L25.648,32l-2.967-.323a1,1,0,1,0-.217,1.988l4.424.481,1.26,2.184-2.967-.323a1.015,1.015,0,0,0-.975.494,1,1,0,0,0,.06,1.091L26.029,40H23.507l-2.628-3.591a1,1,0,1,0-1.613,1.182L21.029,40H17A1,1,0,0,0,16,41Zm11.219,2.761L28.507,42h1.761l-.88,1.525ZM32,46.521l-.88-2L32,43l.88,1.525Zm4.781-2.76-2.169-.236L33.732,42h1.761Zm0-5.522L35.493,40H33.732l.88-1.525ZM32,35.479l.88,2L32,39l-.88-1.525Zm-4.781,2.76,2.169.236L30.268,40H28.507Z"/><path d="M57,27a1,1,0,0,0,0-2H50a1,1,0,0,0-1,1v4a1,1,0,0,0,1,1h7a1,1,0,0,0,0-2H51V27Z"/><path d="M7,27h7a1,1,0,0,0,0-2H7a1,1,0,0,0,0,2Z"/><path d="M7,31h4a1,1,0,0,0,0-2H7a1,1,0,0,0,0,2Z"/><circle cx="57" cy="57" r="1"/><circle cx="7" cy="57" r="1"/></g></g></svg>
