<svg id="calendar" xmlns="http://www.w3.org/2000/svg" width="36" height="36" viewBox="0 0 36 36">
  <g id="Group_18" data-name="Group 18" transform="translate(23.251 18.211)">
    <g id="Group_17" data-name="Group 17">
      <path id="Path_59" data-name="Path 59" d="M264.824,202.344l-4.531,4.531-.931-.931-1.018,1.018,1.949,1.949,5.549-5.549Z" transform="translate(-258.344 -202.344)" fill="#fff"/>
    </g>
  </g>
  <g id="Group_20" data-name="Group 20" transform="translate(6.558 15.139)">
    <g id="Group_19" data-name="Group 19" transform="translate(0 0)">
      <rect id="Rectangle_46" data-name="Rectangle 46" width="1" height="2" transform="translate(0.442 -0.139)" fill="#fff"/>
    </g>
  </g>
  <g id="Group_22" data-name="Group 22" transform="translate(9.895 15.139)">
    <g id="Group_21" data-name="Group 21" transform="translate(0 0)">
      <rect id="Rectangle_47" data-name="Rectangle 47" width="1" height="2" transform="translate(0.105 -0.139)" fill="#fff"/>
    </g>
  </g>
  <g id="Group_24" data-name="Group 24" transform="translate(13.709 15.139)">
    <g id="Group_23" data-name="Group 23" transform="translate(0 0)">
      <rect id="Rectangle_48" data-name="Rectangle 48" width="1" height="2" transform="translate(0.291 -0.139)" fill="#fff"/>
    </g>
  </g>
  <g id="Group_26" data-name="Group 26" transform="translate(17.046 15.139)">
    <g id="Group_25" data-name="Group 25" transform="translate(0 0)">
      <rect id="Rectangle_49" data-name="Rectangle 49" width="2" height="2" transform="translate(-0.046 -0.139)" fill="#fff"/>
    </g>
  </g>
  <g id="Group_28" data-name="Group 28" transform="translate(20.861 15.139)">
    <g id="Group_27" data-name="Group 27" transform="translate(0 0)">
      <rect id="Rectangle_50" data-name="Rectangle 50" width="1" height="2" transform="translate(0.139 -0.139)" fill="#fff"/>
    </g>
  </g>
  <g id="Group_30" data-name="Group 30" transform="translate(24.675 15.139)">
    <g id="Group_29" data-name="Group 29" transform="translate(0 0)">
      <rect id="Rectangle_51" data-name="Rectangle 51" width="1" height="2" transform="translate(0.325 -0.139)" fill="#fff"/>
    </g>
  </g>
  <g id="Group_32" data-name="Group 32" transform="translate(28.012 15.139)">
    <g id="Group_31" data-name="Group 31" transform="translate(0 0)">
      <rect id="Rectangle_52" data-name="Rectangle 52" width="1" height="2" transform="translate(-0.012 -0.139)" fill="#fff"/>
    </g>
  </g>
  <g id="Group_34" data-name="Group 34" transform="translate(6.558 18.953)">
    <g id="Group_33" data-name="Group 33" transform="translate(0 0)">
      <rect id="Rectangle_53" data-name="Rectangle 53" width="1" height="1" transform="translate(0.442 0.047)" fill="#fff"/>
    </g>
  </g>
  <g id="Group_36" data-name="Group 36" transform="translate(9.895 18.953)">
    <g id="Group_35" data-name="Group 35" transform="translate(0 0)">
      <rect id="Rectangle_54" data-name="Rectangle 54" width="1" height="1" transform="translate(0.105 0.047)" fill="#fff"/>
    </g>
  </g>
  <g id="Group_38" data-name="Group 38" transform="translate(13.709 18.953)">
    <g id="Group_37" data-name="Group 37" transform="translate(0 0)">
      <rect id="Rectangle_55" data-name="Rectangle 55" width="1" height="1" transform="translate(0.291 0.047)" fill="#fff"/>
    </g>
  </g>
  <g id="Group_40" data-name="Group 40" transform="translate(17.046 18.953)">
    <g id="Group_39" data-name="Group 39" transform="translate(0 0)">
      <rect id="Rectangle_56" data-name="Rectangle 56" width="2" height="1" transform="translate(-0.046 0.047)" fill="#fff"/>
    </g>
  </g>
  <g id="Group_42" data-name="Group 42" transform="translate(6.558 22.291)">
    <g id="Group_41" data-name="Group 41" transform="translate(0 0)">
      <rect id="Rectangle_57" data-name="Rectangle 57" width="1" height="2" transform="translate(0.442 -0.291)" fill="#fff"/>
    </g>
  </g>
  <g id="Group_44" data-name="Group 44" transform="translate(9.895 22.291)">
    <g id="Group_43" data-name="Group 43" transform="translate(0 0)">
      <rect id="Rectangle_58" data-name="Rectangle 58" width="1" height="2" transform="translate(0.105 -0.291)" fill="#fff"/>
    </g>
  </g>
  <g id="Group_46" data-name="Group 46" transform="translate(13.709 22.291)">
    <g id="Group_45" data-name="Group 45" transform="translate(0 0)">
      <rect id="Rectangle_59" data-name="Rectangle 59" width="1" height="2" transform="translate(0.291 -0.291)" fill="#fff"/>
    </g>
  </g>
  <g id="Group_48" data-name="Group 48" transform="translate(17.046 22.291)">
    <g id="Group_47" data-name="Group 47" transform="translate(0 0)">
      <rect id="Rectangle_60" data-name="Rectangle 60" width="2" height="2" transform="translate(-0.046 -0.291)" fill="#fff"/>
    </g>
  </g>
  <g id="Group_50" data-name="Group 50" transform="translate(6.558 26.105)">
    <g id="Group_49" data-name="Group 49" transform="translate(0 0)">
      <rect id="Rectangle_61" data-name="Rectangle 61" width="1" height="2" transform="translate(0.442 -0.105)" fill="#fff"/>
    </g>
  </g>
  <g id="Group_52" data-name="Group 52" transform="translate(9.895 26.105)">
    <g id="Group_51" data-name="Group 51" transform="translate(0 0)">
      <rect id="Rectangle_62" data-name="Rectangle 62" width="1" height="2" transform="translate(0.105 -0.105)" fill="#fff"/>
    </g>
  </g>
  <g id="Group_54" data-name="Group 54" transform="translate(13.709 26.105)">
    <g id="Group_53" data-name="Group 53" transform="translate(0 0)">
      <rect id="Rectangle_63" data-name="Rectangle 63" width="1" height="2" transform="translate(0.291 -0.105)" fill="#fff"/>
    </g>
  </g>
  <g id="Group_56" data-name="Group 56" transform="translate(6.558 29.442)">
    <g id="Group_55" data-name="Group 55" transform="translate(0 0)">
      <rect id="Rectangle_64" data-name="Rectangle 64" width="1" height="2" transform="translate(0.442 -0.442)" fill="#fff"/>
    </g>
  </g>
  <g id="Group_58" data-name="Group 58" transform="translate(9.895 29.442)">
    <g id="Group_57" data-name="Group 57" transform="translate(0 0)">
      <rect id="Rectangle_65" data-name="Rectangle 65" width="1" height="2" transform="translate(0.105 -0.442)" fill="#fff"/>
    </g>
  </g>
  <g id="Group_60" data-name="Group 60" transform="translate(13.709 29.442)">
    <g id="Group_59" data-name="Group 59" transform="translate(0 0)">
      <rect id="Rectangle_66" data-name="Rectangle 66" width="1" height="2" transform="translate(0.291 -0.442)" fill="#fff"/>
    </g>
  </g>
  <g id="Group_62" data-name="Group 62" transform="translate(17.046 26.105)">
    <g id="Group_61" data-name="Group 61" transform="translate(0 0)">
      <rect id="Rectangle_67" data-name="Rectangle 67" width="2" height="2" transform="translate(-0.046 -0.105)" fill="#fff"/>
    </g>
  </g>
  <g id="Group_64" data-name="Group 64">
    <g id="Group_63" data-name="Group 63">
      <path id="Path_60" data-name="Path 60" d="M30.24,2.88V0H25.92V2.88H10.08V0H5.76V2.88H0V36H29.818l.334-.334,5.512-5.512L36,29.818V2.88Zm-2.88,0V1.44H28.8V5.76H27.36ZM7.2,2.88V1.44H8.64V5.76H7.2ZM30.24,33.542v-3.3h3.3ZM34.56,28.8H28.8v5.76H1.44V10.8H34.56Zm0-19.44H1.44V4.32H5.76V7.2h4.32V4.32H25.92V7.2h4.32V4.32h4.32Z" fill="#fff"/>
    </g>
  </g>
  <g id="Group_66" data-name="Group 66" transform="translate(20.88 18.72)">
    <g id="Group_65" data-name="Group 65">
      <path id="Path_61" data-name="Path 61" d="M239.2,213.04v2.16h-5.76v-5.76h3.6V208H232v8.64h8.64v-3.6Z" transform="translate(-232 -208)" fill="#fff"/>
    </g>
  </g>
</svg>
