<svg id="suitcases" xmlns="http://www.w3.org/2000/svg" width="29.601" height="29.601" viewBox="0 0 29.601 29.601">
  <path id="Path_5" data-name="Path 5" d="M16.187,4.9H12.755V.867h.723a.434.434,0,1,0,0-.867H4.735a.434.434,0,1,0,0,.867h.723V4.9H2.026A2.028,2.028,0,0,0,0,6.922V25.707a2.029,2.029,0,0,0,1.735,2V28.3a1.3,1.3,0,0,0,2.6,0v-.568h9.54V28.3a1.3,1.3,0,0,0,2.6,0v-.589a2.029,2.029,0,0,0,1.735-2V10.222a.434.434,0,0,0-.867,0V25.707a1.16,1.16,0,0,1-1.159,1.159H2.026A1.16,1.16,0,0,1,.867,25.707V6.922A1.16,1.16,0,0,1,2.026,5.763H16.187a1.16,1.16,0,0,1,1.159,1.159V8.193a.434.434,0,0,0,.867,0V6.922A2.028,2.028,0,0,0,16.187,4.9Zm-.576,22.837V28.3a.434.434,0,0,1-.867,0v-.568Zm-12.142,0V28.3a.434.434,0,0,1-.867,0v-.568ZM6.325.867h5.563V4.9H6.325Z" fill="#fff"/>
  <path id="Path_6" data-name="Path 6" d="M34.152,278.2h10.16a.434.434,0,0,0,.434-.434v-9.655a.434.434,0,0,0-.434-.434H30.436a.434.434,0,0,0-.434.434v9.655a.434.434,0,0,0,.434.434H32.17a.434.434,0,1,0,0-.867h-1.3v-8.788H43.878v8.788H34.152a.434.434,0,1,0,0,.867Z" transform="translate(-28.267 -252.205)" fill="#fff"/>
  <path id="Path_7" data-name="Path 7" d="M69.457,300.024a.434.434,0,0,0,.434-.434v-1.408h.954a.434.434,0,1,0,0-.867H60.438a.434.434,0,1,0,0,.867h8.586v1.408A.434.434,0,0,0,69.457,300.024Z" transform="translate(-56.535 -280.126)" fill="#fff"/>
  <path id="Path_8" data-name="Path 8" d="M106.222,162.211a.434.434,0,0,0,.434-.434v-1.734a.434.434,0,0,0-.434-.434H100.44a.434.434,0,0,0-.434.434v1.734a.434.434,0,0,0,.434.434Zm-5.348-1.734h4.915v.867h-4.915Z" transform="translate(-94.224 -150.381)" fill="#fff"/>
  <path id="Path_9" data-name="Path 9" d="M338.05,185H334.6v-1.65a1.381,1.381,0,0,0-1.379-1.379H329.96a.434.434,0,1,0,0,.867h3.264a.513.513,0,0,1,.512.512V185H329.96a.434.434,0,1,0,0,.867h3.776v.867l-.917.934a.434.434,0,0,0-.124.3v2.659a.434.434,0,0,0,.434.434h2.081a.434.434,0,0,0,.434-.434v-2.659a.434.434,0,0,0-.124-.3l-.917-.934v-.867h3.447a1.16,1.16,0,0,1,1.159,1.159v6.833h-1.475a.434.434,0,1,0,0,.867h1.475v1.143H329.96a.434.434,0,1,0,0,.867h9.249v.421a1.16,1.16,0,0,1-1.159,1.159h-8.09a.434.434,0,1,0,0,.867h5.922v.568a1.3,1.3,0,0,0,2.6,0v-.614a2.029,2.029,0,0,0,1.592-1.979V187.031A2.028,2.028,0,0,0,338.05,185Zm-3.273,5.2h-1.214v-2.049l.607-.618.607.618V190.2Zm2.84,9.553a.434.434,0,0,1-.867,0v-.568h.867v.568Z" transform="translate(-310.475 -171.455)" fill="#fff"/>
  <path id="Path_10" data-name="Path 10" d="M329.96,388.466h5.77a.434.434,0,1,0,0-.867h-5.77a.434.434,0,1,0,0,.867Z" transform="translate(-310.475 -365.19)" fill="#fff"/>
</svg>
